<svg viewBox="0 0 828 1792" fill="none" xmlns="http://www.w3.org/2000/svg">
<g clip-path="url(#clip0_50_578)">
<path d="M-141.021 2070.16C-2.7871 2096.89 136.308 2009.42 217.891 1894.61C299.473 1779.8 337.531 1640.87 384.837 1508.26C477.802 1247.66 617.437 994.787 835.352 824.251C938.319 743.671 1056.01 683.547 1159.33 603.418C1262.65 523.289 1354.27 415.885 1374.2 286.653C1401.51 109.093 1278.06 -69.5739 1113.05 -140.572C948.047 -211.571 754.269 -188.95 589.733 -116.893C425.197 -44.8365 284.906 72.2861 151.502 192.593C-16.5409 344.119 -177.485 503.065 -331.33 669.43C-363.315 704.023 -395.877 740.438 -409.944 785.397C-427.186 840.446 -414.265 899.864 -401.265 956.069L-143.626 2069.9" fill="#CCDB38"/>
<path d="M-160.113 1579.08C-97.7902 1510.69 -30.422 1442.99 54.8143 1407C162.141 1361.68 283.417 1372.13 399.698 1365C515.978 1357.88 644.102 1323.45 704.035 1223.54C768.395 1116.24 729.387 979.181 744.13 854.936C767.034 661.936 917.6 511.836 1063.03 382.869C1152.52 303.514 1252.39 202.057 1230.32 84.5128C1212.33 -11.6247 1112.54 -75.4911 1015.01 -83.3384C917.483 -91.1858 822.127 -55.5053 732.032 -17.3363C452.574 101.107 186.606 249.148 -61.3191 424.252C-112.259 460.236 -164.237 499.473 -192.01 555.315C-230.469 632.633 -214.864 724.489 -201.012 809.732C-160.871 1056.87 -143.064 1307.12 -147.809 1557.45" fill="#4A97B8"/>
<path d="M-352.235 1228.15C-311.209 1105.59 -170.223 1051.25 -44.0681 1023.21C82.0867 995.171 223.024 970.384 301.824 867.947C361.767 790.022 370.397 684.391 363.893 586.295C357.388 488.198 338.423 389.611 352.274 292.288C371.024 160.813 449.148 35.8428 429.664 -95.5344C416.674 -183.256 351.089 -266.266 263.6 -280.697C174.641 -295.392 87.4844 -238.521 33.008 -166.67C-21.4684 -94.8193 -52.3557 -8.31213 -95.8604 70.6709C-181.283 225.962 -313.462 349.884 -414.98 495.104C-516.497 640.325 -587.813 826.888 -528.351 993.848C-497.248 1081.2 -433.71 1153.01 -366.381 1216.76" fill="#54ACD2"/>
</g>
<defs>
<clipPath id="clip0_50_578">
<rect width="1928" height="2358" fill="white" transform="translate(-550 -283)"/>
</clipPath>
</defs>
</svg>
