<svg xmlns="http://www.w3.org/2000/svg" width="462.325" height="1185" viewBox="0 0 462.325 1185">
  <g id="BG_Texture_UR" data-name="BG Texture UR" transform="translate(-529.327 40.5)">
    <circle id="Ellipse_23" data-name="Ellipse 23" cx="11.723" cy="11.723" r="11.723" transform="translate(723.472 402.668)" fill="#ffcf47"/>
    <circle id="Ellipse_24" data-name="Ellipse 24" cx="11.723" cy="11.723" r="11.723" transform="translate(698.373 427.768)" fill="#ffcf47"/>
    <circle id="Ellipse_25" data-name="Ellipse 25" cx="24.458" cy="24.458" r="24.458" transform="translate(688.861 28.4) rotate(-45)" fill="#ccdb38"/>
    <path id="Path_36" data-name="Path 36" d="M662.669,124.506,548.521,238.654a65.529,65.529,0,0,0,0,92.674h0a65.529,65.529,0,0,0,92.674,0l51.988-51.988a28.771,28.771,0,0,1,40.687,0h0a28.771,28.771,0,0,1,0,40.687l-11.3,11.3a59.137,59.137,0,0,0,0,83.633h0a59.139,59.139,0,0,0,83.633,0l46.337-46.338a12.787,12.787,0,0,1,18.083,0h0a12.786,12.786,0,0,1,0,18.083L757.6,499.725a51.147,51.147,0,0,0,0,72.331h0a51.145,51.145,0,0,0,72.331,0l30.515-30.515a11.188,11.188,0,0,1,15.822,0h0a11.189,11.189,0,0,1,0,15.823l-2.53,2.53a137.072,137.072,0,0,0,0,193.851L926,806V-40.5S672.84,134.678,662.669,124.506Z" fill="#54acd2"/>
    <g id="Group_7" data-name="Group 7">
      <path id="Path_37" data-name="Path 37" d="M780.76,927.993h0a6.273,6.273,0,0,0,0,8.872l18.889,18.889a6.273,6.273,0,0,0,8.872,0h0a6.273,6.273,0,0,0,0-8.872l-18.889-18.889A6.273,6.273,0,0,0,780.76,927.993Z" fill="#2c316d"/>
      <path id="Path_38" data-name="Path 38" d="M780.76,955.754h0a6.273,6.273,0,0,0,8.872,0l18.889-18.889a6.273,6.273,0,0,0,0-8.872h0a6.273,6.273,0,0,0-8.872,0L780.76,946.882A6.273,6.273,0,0,0,780.76,955.754Z" fill="#2c316d"/>
    </g>
    <g id="Group_14" data-name="Group 14">
      <g id="Group_10" data-name="Group 10">
        <g id="Group_8" data-name="Group 8">
          <circle id="Ellipse_26" data-name="Ellipse 26" cx="4.395" cy="4.395" r="4.395" transform="translate(778.572 1022.899)" fill="#2c316d"/>
          <path id="Path_39" data-name="Path 39" d="M805.928,1031.688a4.395,4.395,0,1,0-4.395-4.394A4.395,4.395,0,0,0,805.928,1031.688Z" fill="#2c316d"/>
          <circle id="Ellipse_27" data-name="Ellipse 27" cx="4.395" cy="4.395" r="4.395" transform="translate(778.572 1045.262)" fill="#2c316d"/>
          <path id="Path_40" data-name="Path 40" d="M805.928,1054.051a4.395,4.395,0,1,0-4.395-4.4A4.395,4.395,0,0,0,805.928,1054.051Z" fill="#2c316d"/>
        </g>
        <g id="Group_9" data-name="Group 9">
          <circle id="Ellipse_28" data-name="Ellipse 28" cx="4.395" cy="4.395" r="4.395" transform="translate(778.572 977.632)" fill="#2c316d"/>
          <path id="Path_41" data-name="Path 41" d="M805.928,986.421a4.395,4.395,0,1,0-4.395-4.4A4.395,4.395,0,0,0,805.928,986.421Z" fill="#2c316d"/>
          <circle id="Ellipse_29" data-name="Ellipse 29" cx="4.395" cy="4.395" r="4.395" transform="translate(778.572 999.994)" fill="#2c316d"/>
          <path id="Path_42" data-name="Path 42" d="M805.928,1008.784a4.395,4.395,0,1,0-4.395-4.4A4.4,4.4,0,0,0,805.928,1008.784Z" fill="#2c316d"/>
        </g>
      </g>
      <g id="Group_13" data-name="Group 13">
        <g id="Group_11" data-name="Group 11">
          <circle id="Ellipse_30" data-name="Ellipse 30" cx="4.395" cy="4.395" r="4.395" transform="translate(778.572 1113.348)" fill="#2c316d"/>
          <path id="Path_43" data-name="Path 43" d="M805.928,1122.137a4.394,4.394,0,1,0-4.395-4.4A4.395,4.395,0,0,0,805.928,1122.137Z" fill="#2c316d"/>
          <path id="Path_44" data-name="Path 44" d="M782.966,1144.5a4.394,4.394,0,1,0-4.394-4.4A4.395,4.395,0,0,0,782.966,1144.5Z" fill="#2c316d"/>
          <path id="Path_45" data-name="Path 45" d="M805.928,1144.5a4.394,4.394,0,1,0-4.395-4.4A4.4,4.4,0,0,0,805.928,1144.5Z" fill="#2c316d"/>
        </g>
        <g id="Group_12" data-name="Group 12">
          <circle id="Ellipse_31" data-name="Ellipse 31" cx="4.395" cy="4.395" r="4.395" transform="translate(778.572 1068.081)" fill="#2c316d"/>
          <path id="Path_46" data-name="Path 46" d="M805.928,1076.87a4.394,4.394,0,1,0-4.395-4.4A4.4,4.4,0,0,0,805.928,1076.87Z" fill="#2c316d"/>
          <circle id="Ellipse_32" data-name="Ellipse 32" cx="4.395" cy="4.395" r="4.395" transform="translate(778.572 1090.443)" fill="#2c316d"/>
          <path id="Path_47" data-name="Path 47" d="M805.928,1099.233a4.4,4.4,0,1,0-4.395-4.4A4.4,4.4,0,0,0,805.928,1099.233Z" fill="#2c316d"/>
        </g>
      </g>
    </g>
    <line id="Line_9" data-name="Line 9" x1="179.999" y2="179.999" transform="translate(672.283 94.503)" fill="none" stroke="#fff" stroke-linecap="round" stroke-miterlimit="10" stroke-width="3"/>
    <line id="Line_10" data-name="Line 10" x1="161.335" y2="161.335" transform="translate(791.546 370.2)" fill="none" stroke="#fff" stroke-linecap="round" stroke-miterlimit="10" stroke-width="3"/>
    <line id="Line_11" data-name="Line 11" x1="161.335" y2="161.335" transform="translate(728.369 6.108)" fill="none" stroke="#fff" stroke-linecap="round" stroke-miterlimit="10" stroke-width="3"/>
    <circle id="Ellipse_33" data-name="Ellipse 33" cx="28.484" cy="28.484" r="28.484" transform="translate(789.025 187.46)" fill="#fff"/>
    <path id="Path_48" data-name="Path 48" d="M858.039,235.6c-.657,1.97-75.9,76.4-104.733,104.878a15.455,15.455,0,0,0-.061,21.93h0a15.465,15.465,0,0,0,21.869,0l23.4-23.4a7.759,7.759,0,0,1,10.971,0h0a7.759,7.759,0,0,1,0,10.971l-9.752,9.751a16.951,16.951,0,0,0,0,23.973h0a16.951,16.951,0,0,0,23.973,0h0a7.183,7.183,0,0,1,10.158,0l27.426,27.427V233.16" fill="#a4e3db"/>
    <line id="Line_12" data-name="Line 12" x1="201.474" y2="201.474" transform="translate(788.057 529.981)" fill="none" stroke="#2c316d" stroke-linecap="round" stroke-miterlimit="10" stroke-width="3"/>
    <line id="Line_13" data-name="Line 13" x1="201.474" y2="201.474" transform="translate(777.353 65.019)" fill="none" stroke="#2c316d" stroke-linecap="round" stroke-miterlimit="10" stroke-width="3"/>
  </g>
</svg>
