<?xml version="1.0" encoding="utf-8"?>
<!-- Generator: Adobe Illustrator 24.3.0, SVG Export Plug-In . SVG Version: 6.00 Build 0)  -->
<svg version="1.1" id="Layer_1" xmlns="http://www.w3.org/2000/svg" xmlns:xlink="http://www.w3.org/1999/xlink" x="0px" y="0px"
	 viewBox="0 0 500 500" style="enable-background:new 0 0 500 500;" xml:space="preserve">
<style type="text/css">
	.st0{fill:#FAC51C;}
	.st1{fill:#FF9700;}
	.st2{fill:#4BAF4F;}
	.st3{fill:#FFFFFF;}
	.st4{fill:#75706B;}
	.st5{fill:#FD5621;}
</style>
<g>
	<polygon class="st0" points="256.43,430.69 305.18,430.69 327.77,331.71 256.43,331.71 	"/>
	<path class="st0" d="M340.32,430.69c-1.51-15.8-19.69-28.28-41.95-28.28s-40.43,12.48-41.95,28.28H340.32z"/>
	<path class="st1" d="M53.51,337.76c-1.65-1.07-3.28-1.96-4.83-2.66c-0.11-0.66-0.28-1.31-0.55-1.93c-1.15-2.66-3.59-4.5-6.72-5.4
		c-0.53-2.74-0.85-5.54-0.85-8.42c0-25.49,21.08-46.34,47.83-48.24c-0.53-1.39-1.05-2.79-1.58-4.17c-0.82-2.16-1.6-4.34-2.62-6.42
		c-0.28-0.57-2.63-4.19-1.79-3.55c-2.49-1.9-4.25-4.51-4.53-7.37c-35.04,6.32-61.52,35.14-61.52,69.75c0,5.59,0.71,11.02,2.03,16.24
		c-3.08,3.72-4.25,8.03-2.69,11.64c0.04,0.09,0.09,0.17,0.13,0.26c-0.33,1.85-0.53,3.92-0.53,6.15c0,7.42,2.06,13.43,4.6,13.43
		s4.6-6.01,4.6-13.43c0-0.2-0.02-0.38-0.02-0.57c0.65,0.1,1.31,0.16,1.99,0.19c0.09,0.46,0.15,0.91,0.26,1.38
		c1.61,7.24,4.93,12.66,7.4,12.11c2.48-0.55,3.18-6.87,1.57-14.11c-0.07-0.32-0.16-0.61-0.24-0.92c0.41-0.15,0.83-0.31,1.24-0.49
		c0.26-0.11,0.51-0.24,0.77-0.37c0.3,0.68,0.61,1.36,0.97,2.05c3.4,6.59,7.98,11,10.24,9.83c2.26-1.16,1.33-7.45-2.07-14.05
		c-0.58-1.12-1.19-2.14-1.82-3.12c0.52-0.57,0.99-1.15,1.41-1.74c0.72,0.55,1.49,1.1,2.3,1.62c6.21,4.05,12.37,5.62,13.76,3.49
		C63.63,346.82,59.72,341.82,53.51,337.76z"/>
	<path class="st1" d="M446.49,337.76c1.65-1.07,3.28-1.96,4.83-2.66c0.11-0.66,0.28-1.31,0.55-1.93c1.15-2.66,3.59-4.5,6.72-5.4
		c0.53-2.74,0.85-5.54,0.85-8.42c0-25.49-21.08-46.34-47.83-48.24c0.53-1.39,1.05-2.79,1.58-4.17c0.82-2.16,1.6-4.34,2.62-6.42
		c0.28-0.57,2.63-4.19,1.79-3.55c2.49-1.9,4.25-4.51,4.53-7.37c35.04,6.32,61.51,35.14,61.51,69.75c0,5.59-0.71,11.02-2.03,16.24
		c3.08,3.72,4.25,8.03,2.69,11.64c-0.04,0.09-0.09,0.17-0.13,0.26c0.33,1.85,0.53,3.92,0.53,6.15c0,7.42-2.06,13.43-4.6,13.43
		c-2.54,0-4.6-6.01-4.6-13.43c0-0.2,0.02-0.38,0.02-0.57c-0.65,0.1-1.31,0.16-1.99,0.19c-0.09,0.46-0.15,0.91-0.26,1.38
		c-1.61,7.24-4.93,12.66-7.4,12.11c-2.48-0.55-3.18-6.87-1.57-14.11c0.07-0.32,0.16-0.61,0.24-0.92c-0.41-0.15-0.83-0.31-1.24-0.49
		c-0.26-0.11-0.51-0.24-0.77-0.37c-0.3,0.68-0.61,1.36-0.97,2.05c-3.4,6.59-7.98,11-10.24,9.83c-2.26-1.16-1.33-7.45,2.07-14.05
		c0.58-1.12,1.19-2.14,1.82-3.12c-0.52-0.57-0.99-1.15-1.41-1.74c-0.72,0.55-1.49,1.1-2.3,1.62c-6.21,4.05-12.37,5.62-13.76,3.49
		C436.37,346.82,440.28,341.82,446.49,337.76z"/>
	<path class="st0" d="M426.1,249.6c0,64.22-79.16,105.21-176.81,105.21S72.48,313.82,72.48,249.6
		c0-64.22,79.16-116.29,176.81-116.29S426.1,185.37,426.1,249.6z"/>
	<circle class="st0" cx="249.29" cy="152.75" r="83.44"/>
	<g>
		<g>
			<g>
				<circle class="st2" cx="150.09" cy="197.69" r="4.46"/>
			</g>
			<g>
				<path class="st2" d="M171.51,203.04c0,3.7-3,6.69-6.69,6.69s-6.69-3-6.69-6.69c0-3.7,3-6.69,6.69-6.69
					S171.51,199.34,171.51,203.04z"/>
			</g>
			<g>
				<path class="st2" d="M165.93,188.76c0,1.85-1.5,3.35-3.35,3.35c-1.85,0-3.35-1.5-3.35-3.35c0-1.85,1.5-3.35,3.35-3.35
					C164.44,185.41,165.93,186.91,165.93,188.76z"/>
			</g>
		</g>
	</g>
	<path class="st2" d="M355.22,193.14c0,2.46-2,4.46-4.46,4.46c-2.46,0-4.46-2-4.46-4.46c0-2.46,2-4.46,4.46-4.46
		C353.22,188.68,355.22,190.68,355.22,193.14z"/>
	<path class="st2" d="M314.21,365.73c0,2.46-2,4.46-4.46,4.46c-2.46,0-4.46-2-4.46-4.46c0-2.46,2-4.46,4.46-4.46
		C312.21,361.27,314.21,363.27,314.21,365.73z"/>
	<path class="st2" d="M266.85,362.47c0,1.54-1.25,2.79-2.79,2.79c-1.54,0-2.79-1.25-2.79-2.79c0-1.54,1.25-2.79,2.79-2.79
		C265.6,359.68,266.85,360.93,266.85,362.47z"/>
	<path class="st2" d="M384.31,224.25c0,3.7-3,6.69-6.69,6.69c-3.7,0-6.69-3-6.69-6.69c0-3.7,3-6.69,6.69-6.69
		C381.32,217.56,384.31,220.55,384.31,224.25z"/>
	<path class="st2" d="M91.79,196.78c-5.58,7.18-10.07,14.78-13.3,22.73c2.02,1.25,4.38,2,6.92,2c7.3,0,13.22-5.92,13.22-13.22
		C98.64,203.31,95.85,199.03,91.79,196.78z"/>
	<path class="st2" d="M388.74,197.9c0,1.85-1.5,3.35-3.35,3.35c-1.85,0-3.35-1.5-3.35-3.35c0-1.85,1.5-3.35,3.35-3.35
		C387.24,194.56,388.74,196.06,388.74,197.9z"/>
	<circle class="st2" cx="89.28" cy="228.09" r="3.35"/>
	<circle class="st2" cx="102.55" cy="291.5" r="3.35"/>
	<circle class="st2" cx="388.47" cy="278.04" r="2.3"/>
	<circle class="st2" cx="265.7" cy="400.81" r="3.35"/>
	<path class="st2" d="M222.55,376.33c0,1.85-1.5,3.35-3.35,3.35c-1.85,0-3.35-1.5-3.35-3.35c0-1.85,1.5-3.35,3.35-3.35
		C221.05,372.99,222.55,374.49,222.55,376.33z"/>
	
		<ellipse transform="matrix(0.2298 -0.9732 0.9732 0.2298 43.3543 360.2768)" class="st3" cx="249.29" cy="152.75" rx="67.12" ry="67.12"/>
	<circle class="st2" cx="249.29" cy="152.75" r="55.97"/>
	<circle cx="249.29" cy="152.75" r="35.56"/>
	
		<ellipse transform="matrix(0.9239 -0.3827 0.3827 0.9239 -25.8453 112.4344)" class="st3" cx="269.7" cy="121.18" rx="27.02" ry="27.02"/>
	<path class="st1" d="M378.81,265.54c0.83,30.25-58.36,55.42-132.2,56.23c-73.84,0.8-134.37-23.07-135.2-53.32
		c-0.36-12.96,16.11-28.57,34.4-34.59c16.16-5.32,34.13-1.6,50.82,0.3c25.36,2.89,45.5,3.34,69.97-0.74
		c23.26-3.88,55.86-12.14,78.76-4.96C365.83,234.86,378.43,251.75,378.81,265.54z"/>
	<path class="st4" d="M380.54,274.78c0,30.25-59.87,54.78-133.72,54.78S113.1,305.03,113.1,274.78c0-12.96,16.89-28.39,35.34-34.22
		c16.3-5.15,34.17-1.23,50.8,0.85c25.28,3.16,45.4,3.83,69.98,0.02c23.36-3.62,56.18-11.53,78.89-4.1
		C368.4,243.96,380.54,260.99,380.54,274.78z"/>
	<path class="st2" d="M260.22,326.58c-33.36,1.52-71.21-2.06-80.81-10.6c-8-7.12,9.5-12.69,27.41-12.66
		c14.08,0.02,25.97,2.54,39.79,2.31c9.26-0.15,18.23-1.21,26.85-2.45c8.35-1.2,17.35-2.62,25.98-1.72
		c9.05,0.94,15.05,4.34,15.92,7.76C317.95,319.43,291,325.18,260.22,326.58z"/>
	<path class="st3" d="M150.48,273.97c23.3-7.21,49.22,0.63,73.14-0.22c30.88-1.1,57.6-14.52,88.33-15.24
		c12.69-0.3,25.85-0.34,37.65,4.48c4.24,1.73,26.88,15.83,21.64,21.91c3.31-3.85,4.66-8.84,4.47-13.67
		c-0.43-11.34-9.05-21.68-20.29-27.11c-19.35-9.36-49.94-6.06-70.8-2.62c-32.94,5.44-63.01,6.38-96.01,1.36
		c-20.61-3.13-39.81-1.49-56.7,10c-14.83,10.09-21.91,29.75-3.85,41.41c0.46-2.59,1.58-5.09,3.25-7.25
		C136.53,280.27,143.11,276.25,150.48,273.97z"/>
	<polygon class="st0" points="242.16,430.69 193.41,430.69 170.82,331.71 242.16,331.71 	"/>
	<polygon class="st0" points="242.16,430.69 193.41,430.69 170.82,331.71 242.16,331.71 	"/>
	<path class="st1" d="M249.29,343.37c-96.08,0-174.2-37.64-176.69-96.86c-0.04,1.03-0.12,2.05-0.12,3.09
		c0,64.22,79.16,105.21,176.81,105.21S426.1,313.82,426.1,249.6c0-1.04-0.08-2.06-0.12-3.09
		C423.49,305.73,345.37,343.37,249.29,343.37z"/>
	<path class="st5" d="M246.82,340.99c-42.11,0-80.06-6.58-106.91-17.11c24.4,13.28,63.2,21.88,106.91,21.88s82.51-8.59,106.91-21.88
		C326.88,334.41,288.93,340.99,246.82,340.99z"/>
	<path class="st0" d="M242.16,430.69c-1.51-15.8-19.69-28.28-41.95-28.28c-22.26,0-40.43,12.48-41.95,28.28H242.16z"/>
	<path class="st2" d="M296.86,391.02c0,3.7-3,6.69-6.69,6.69c-3.7,0-6.69-3-6.69-6.69c0-3.7,3-6.69,6.69-6.69
		C293.87,384.32,296.86,387.32,296.86,391.02z"/>
	<path class="st2" d="M193.26,363.28c0,2.35-1.9,4.25-4.25,4.25c-2.35,0-4.25-1.9-4.25-4.25c0-2.35,1.9-4.25,4.25-4.25
		C191.36,359.04,193.26,360.94,193.26,363.28z"/>
	<path class="st2" d="M207.13,403.25c0,3.7-3,6.69-6.69,6.69c-3.7,0-6.69-3-6.69-6.69c0-3.7,3-6.69,6.69-6.69
		C204.13,396.56,207.13,399.56,207.13,403.25z"/>
	<path class="st2" d="M242.16,369.9c-0.83-0.16-1.69-0.26-2.57-0.26c-7.3,0-13.22,5.92-13.22,13.22c0,7.3,5.92,13.22,13.22,13.22
		c0.88,0,1.73-0.09,2.57-0.26V369.9z"/>
</g>
</svg>
