<?xml version="1.0" encoding="utf-8"?>
<!-- Generator: Adobe Illustrator 24.3.0, SVG Export Plug-In . SVG Version: 6.00 Build 0)  -->
<svg version="1.1" id="Layer_1" xmlns="http://www.w3.org/2000/svg" xmlns:xlink="http://www.w3.org/1999/xlink" x="0px" y="0px"
	 viewBox="0 0 500 500" style="enable-background:new 0 0 500 500;" xml:space="preserve">
<style type="text/css">
	.st0{fill:#28324E;}
	.st1{fill:#475577;}
	.st2{fill:#3C4866;}
	.st3{fill:#FFFFFF;}
	.st4{fill:#54ACD2;}
	.st5{fill:#526288;}
	.st6{fill:#9365B8;}
	.st7{fill:#553982;}
</style>
<g>
	<path class="st0" d="M163.6,88.19c-0.44-23.82-10.21-47.36-26.78-64.48c27.64,10.8,51.24,31.61,65.41,57.67
		c8.3-13.31,22.17-23.03,37.52-26.3c-11.83,13.61-16.36,33.21-11.71,50.63c-15.48,6.71-29.01,17.84-38.59,31.72
		c-6.4-16.48-13.21-33.6-26.31-45.47c0.28-2.94,0.56-5.88,0.83-8.82L163.6,88.19z"/>
	<path class="st0" d="M435.29,418.92c15.92-6.17,29.03-18.46,38.04-32.96c1.03-1.66,2.09-3.43,3.79-4.39
		c3.4-1.92,7.97,0.43,9.69,3.94c1.71,3.51,1.3,7.67,0.52,11.5c-5.44,26.86-26.55,48.77-51.44,60.24
		c-24.89,11.47-53.15,13.64-80.49,11.83c-7.83-0.52-15.78-1.38-23.01-4.42c-19.92-8.38-29.77-31.16-32.7-52.57
		c-3.92-28.62,1.26-58.41,14.59-84.04c6.38-12.26,21.2-26.19,33.71-11.98c4.94,5.61,5.88,13.58,6.94,20.98
		c2.56,17.86,7.15,35.44,13.64,52.27C379.63,418.02,406.12,430.23,435.29,418.92z"/>
	<path class="st1" d="M358.64,232.76c0-0.69,0.02-1.39,0.02-2.07c0-2.22-0.24-4.38-0.69-6.48c-3.94-27.61-25.63-52.12-58.15-69.34
		c0.38-2.45,0.59-4.95,0.59-7.49c0-30.19-27.54-54.67-61.5-54.67c-18.02,0-34.22,6.89-45.47,17.86
		c-13.52-21.52-39.38-36.08-69.08-36.08c-43.67,0-79.08,31.47-79.08,70.29c0,8.87,1.87,17.34,5.24,25.16
		c-19.39,15.3-31.91,33.95-34.81,54.27c-0.45,2.09-0.69,4.26-0.69,6.48c0,44.72-5.37,89.33-1.8,134.05
		c1.75,21.88,5.43,44.06,14.13,64.35c6.59,15.36,20.76,44.05,39.59,47.03c6.14,0.97,12.13-2.03,17.62-4.95
		c6.18-3.28,11.29-10.18,18.08-11.89c8.91-2.24,14.45,4.88,21.38,9.07c9.14,5.53,21.22,4.76,30.63-0.29
		c10.58-5.68,19.08-16.47,31.05-17.41c10.75-0.84,20.1,6.61,28.88,12.86c8.78,6.25,20.22,11.83,29.91,7.11
		c7.89-3.84,12.01-13.51,20.29-16.42c10.4-3.65,20.56,4.94,30.07,10.5c8.58,5.02,15.75,6.97,21.76,6.6
		c31.76-1.95,30.92-68.97,33.18-92.62c4.47-46.84,8.63-97.28,8.83-144.51c0-0.29,0.04-0.58,0.04-0.88
		C358.66,233.1,358.64,232.93,358.64,232.76z"/>
	<path class="st2" d="M358.66,230.68c0-2.22-0.24-4.38-0.69-6.48c-3.94-27.61-25.63-52.12-58.15-69.34
		c0.38-2.45,0.59-4.95,0.59-7.49c0-30.19-27.54-54.67-61.5-54.67c-14.83,0-28.43,4.67-39.05,12.45v348.74
		c5.16,2.58,10.03,6.26,14.73,9.61c8.78,6.25,20.22,11.83,29.91,7.11c7.89-3.84,12.01-13.51,20.29-16.42
		c10.4-3.65,20.56,4.94,30.07,10.5c8.58,5.02,15.75,6.97,21.76,6.6c31.76-1.95,30.92-68.97,33.18-92.62
		c4.47-46.84,8.63-97.28,8.83-144.51c0-0.29,0.04-0.58,0.04-0.88c0-0.18-0.02-0.35-0.02-0.52
		C358.64,232.07,358.66,231.37,358.66,230.68z"/>
	
		<ellipse transform="matrix(0.9239 -0.3827 0.3827 0.9239 -47.0972 59.3659)" class="st3" cx="125.68" cy="148.07" rx="56.91" ry="56.91"/>
	
		<ellipse transform="matrix(0.9239 -0.3827 0.3827 0.9239 -47.0972 59.3659)" class="st4" cx="125.68" cy="148.07" rx="47.45" ry="47.45"/>
	<circle class="st3" cx="235.73" cy="149.66" r="34.07"/>
	<circle class="st4" cx="235.73" cy="149.66" r="28.41"/>
	<path d="M256.63,135.98c0,7.76-6.29,14.06-14.06,14.06s-14.06-6.29-14.06-14.06s6.29-14.06,14.06-14.06
		S256.63,128.21,256.63,135.98z"/>
	<path class="st3" d="M256.01,130.72c0,4-3.25,7.25-7.25,7.25c-4,0-7.25-3.24-7.25-7.25c0-4,3.24-7.25,7.25-7.25
		C252.77,123.47,256.01,126.72,256.01,130.72z"/>
	<circle cx="113.93" cy="169.67" r="23.48"/>
	<circle class="st3" cx="124.27" cy="160.89" r="12.11"/>
	<path class="st5" d="M281.15,278.59c-29.07,29.5-68.85,51.23-107.56,41.17c-41.25-10.72-81.53-38.12-108.43-70.89
		c-7.27-8.85-14.05-18.3-18.1-29.01c-1.15-3.05-1.86-7.03,0.63-9.14c1.9-1.62,4.74-1.27,7.18-0.73c20.54,4.5,39.1,15.1,59.29,20.63
		c75.28,20.63,132.83,4.06,201.31-28.66c1.44-0.69,3.06-1.39,4.58-0.91c2.63,0.83,3.03,4.36,2.71,7.09
		c-1.2,10.42-5.6,20.21-10.66,29.4C304.47,251.38,293.83,265.72,281.15,278.59z"/>
	<path class="st0" d="M281.15,283.8c-29.07,29.5-68.85,51.23-107.56,41.17c-41.25-10.72-81.53-38.12-108.43-70.89
		c-7.27-8.85-14.05-18.3-18.1-29.01c-1.15-3.05-1.86-7.03,0.63-9.14c1.9-1.62,4.74-1.27,7.18-0.73c20.54,4.5,39.1,15.1,59.29,20.63
		c75.28,20.63,132.83,4.06,201.31-28.66c1.44-0.69,3.06-1.39,4.58-0.91c2.63,0.83,3.03,4.36,2.71,7.09
		c-1.2,10.42-5.6,20.21-10.66,29.4C304.47,256.58,293.83,270.93,281.15,283.8z"/>
	<path class="st0" d="M199.57,305.89c11.17,1.81,21.9,6.33,30.74,13.41c2.41,1.93,4.72,4.07,6.28,6.74
		c4.83,8.27-0.75,20.14-4.98,27.78c-4.59,8.29-11.57,14.73-20.41,18.25c-9.54,3.8-20.15,4.18-30.12,2.06
		c-8.85-1.88-14.34-6.49-20.84-12.62c-9.88-9.3-23.87-25.93-14.2-39.49c3.2-4.49,7.92-7.69,12.85-10.17
		C171.35,305.55,185.8,303.66,199.57,305.89z"/>
	<path class="st6" d="M201.43,289.46c0.93-0.65,1.67-1.12,2.06-1.29c5.12-2.31,11.64-2.94,17.19-2.82
		c13.23,0.28,26.69,6.11,36.24,15.22c-3.47,1.83-6.81,3.89-10.01,6.17c-1.3,0.92-2.59,1.91-3.48,3.23
		c-1.17,1.75-1.51,3.91-1.85,5.98c-3.38,20.72-8.51,41.89-30.13,50.4c-9.66,3.8-20.4,4.18-30.5,2.06
		c-8.96-1.88-14.52-6.49-21.11-12.62c-10.53-9.79-18.69-23.69-21.35-37.88c-0.87-4.64-0.48-7.4-4.09-10.99
		c-2.53-2.52-6.68-5.93-10.46-5.43c4.42-1.84,9.08-3.21,13.45-5.24c2.34-1.09,4.59-2.39,7-3.34c13.01-5.12,40.3-8.56,48.11,6.64
		C191.4,297.41,197.81,292.01,201.43,289.46z"/>
	<path class="st7" d="M191.68,307.62l1.65,38.67C193.32,346.29,197.85,295.69,191.68,307.62z"/>
	<path class="st3" d="M65.21,224.28c0,0-11.39-5.01-11.84-1.37c-0.46,3.64,22.32,29.15,39.63,36.89c17.31,7.74,81.53,18.22,133,8.2
		c51.47-10.02,70.6-18.67,77.43-25.51c6.83-6.83,20.04-34.16,14.58-31.88c-5.47,2.28-24.6,12.3-59.67,24.14
		C223.26,246.6,170.42,262.09,65.21,224.28z"/>
</g>
</svg>
