<?xml version="1.0" encoding="utf-8"?>
<!-- Generator: Adobe Illustrator 24.3.0, SVG Export Plug-In . SVG Version: 6.00 Build 0)  -->
<svg version="1.1" id="Layer_1" xmlns="http://www.w3.org/2000/svg" xmlns:xlink="http://www.w3.org/1999/xlink" x="0px" y="0px"
	 viewBox="0 0 500 500" style="enable-background:new 0 0 500 500;" xml:space="preserve">
<style type="text/css">
	.st0{fill:#2A72AC;}
	.st1{fill:#2C82C9;}
	.st2{fill:#2969B0;}
	.st3{fill:#FFFFFF;}
	.st4{fill:#2095F2;}
	.st5{fill:#87ABDA;}
	.st6{fill:#5A91CD;}
</style>
<g>
	<path class="st0" d="M178.19,310.98c0,0-39.94,21.66-63.07,55.38c-23.13,33.72-29.44,48.65-14.03,41.12
		c15.42-7.52,67.97-22.6,67.97-22.6S221.62,333.37,178.19,310.98z"/>
	<path class="st0" d="M317.6,310.98c0,0,39.94,21.66,63.07,55.38c23.13,33.72,29.44,48.65,14.03,41.12
		c-15.42-7.52-67.97-22.6-67.97-22.6S274.17,333.37,317.6,310.98z"/>
	<polygon class="st0" points="387.77,18.03 475.58,125.68 370.07,65.73 	"/>
	<polygon class="st0" points="112.23,16.99 24.42,124.64 129.93,64.7 	"/>
	<path class="st1" d="M351.89,212.4c30.55-8.74,52.94-36.81,52.94-70.17c0-23.92-11.56-45.1-29.33-58.42l1.64-8.94
		c2.92-15.89,20.31-66.82,9.26-55.02c-11.47,12.24-29.5,30.89-49.06,49.62c-1.84-0.14-3.67-0.28-5.54-0.28
		c-36.64,0-66.89,27.01-72.14,62.19c-4.62,2.14-8.65,3.34-11.89,3.32c-2.93-0.01-6.45-1.02-10.39-2.77
		c-5.02-35.45-35.4-62.74-72.23-62.74c-1.15,0-2.27,0.12-3.41,0.17c-18.49-18.63-35.58-37.2-46.82-49.51
		c-10.7-11.72,0.92,36.19,3.1,51.91l1.83,13.24c-16.87,13.38-27.73,34.01-27.73,57.22c0,30.39,18.57,56.44,44.98,67.43l6.69,48.34
		c-10.58,9.48-16.68,20.61-16.68,32.53c0,15.29,10.06,29.3,26.74,40.17L173,469.04c1.11,8.01,7.95,13.97,16.03,13.97
		c6.61,0,11.97-5.36,11.97-11.97v-32.1c0-10.15,8.3-18.45,18.45-18.45h59.31c10.15,0,18.45,8.3,18.45,18.45v32.8
		c0,6.22,5.05,11.27,11.27,11.27c8.38,0,15.37-6.39,16.12-14.73c2.48-27.56,8.09-89.1,13.56-143.95
		c11.48-9.75,18.17-21.35,18.17-33.8c0-9.9-4.23-19.27-11.73-27.59c1.96-17.35,3.68-30.83,4.92-37.6L351.89,212.4z"/>
	<path class="st0" d="M351.89,212.4c30.55-8.74,52.94-36.81,52.94-70.17c0-23.92-11.56-45.1-29.33-58.42l1.64-8.94
		c2.92-15.89,20.31-66.82,9.26-55.02c-11.47,12.24-29.5,30.89-49.06,49.62c-1.84-0.14-3.67-0.28-5.54-0.28
		c-36.64,0-66.89,27.01-72.14,62.19c-4.62,2.14-8.65,3.34-11.89,3.32c-1,0-2.09-0.16-3.22-0.39v286.18h34.21
		c10.15,0,18.45,8.3,18.45,18.45v32.8c0,6.22,5.05,11.27,11.27,11.27c8.38,0,15.37-6.39,16.12-14.73
		c2.48-27.56,8.09-89.1,13.56-143.95c11.48-9.75,18.17-21.35,18.17-33.8c0-9.9-4.23-19.27-11.73-27.59
		c1.96-17.35,3.68-30.83,4.92-37.6L351.89,212.4z"/>
	<ellipse class="st2" cx="333.06" cy="160.15" rx="48.29" ry="48.91"/>
	
		<ellipse transform="matrix(0.2298 -0.9732 0.9732 0.2298 118.1087 433.6995)" class="st3" cx="333.06" cy="142.23" rx="57.92" ry="57.92"/>
	<path class="st4" d="M353.77,141.59c0,11.44-9.27,20.72-20.72,20.72c-11.44,0-20.71-9.27-20.71-20.72
		c0-11.44,9.27-20.72,20.71-20.72C344.5,120.87,353.77,130.15,353.77,141.59z"/>
	<path d="M346.22,141.59c0,7.27-5.89,13.16-13.16,13.16c-7.27,0-13.16-5.89-13.16-13.16c0-7.27,5.89-13.16,13.16-13.16
		C340.32,128.43,346.22,134.32,346.22,141.59z"/>
	<path class="st3" d="M350.61,129.9c0,5.52-4.48,10-10,10c-5.52,0-10-4.48-10-10c0-5.52,4.48-10,10-10
		C346.13,119.9,350.61,124.38,350.61,129.9z"/>
	<ellipse class="st2" cx="165.15" cy="160.15" rx="48.29" ry="48.91"/>
	
		<ellipse transform="matrix(0.2298 -0.9732 0.9732 0.2298 -11.2214 270.2841)" class="st3" cx="165.15" cy="142.23" rx="57.92" ry="57.92"/>
	<path class="st4" d="M185.86,141.59c0,11.44-9.27,20.72-20.72,20.72c-11.44,0-20.71-9.27-20.71-20.72
		c0-11.44,9.27-20.72,20.71-20.72C176.59,120.87,185.86,130.15,185.86,141.59z"/>
	<path d="M178.31,141.59c0,7.27-5.89,13.16-13.16,13.16c-7.27,0-13.16-5.89-13.16-13.16c0-7.27,5.89-13.16,13.16-13.16
		C172.42,128.43,178.31,134.32,178.31,141.59z"/>
	<path class="st3" d="M182.7,129.9c0,5.52-4.48,10-10,10c-5.52,0-10-4.48-10-10c0-5.52,4.48-10,10-10
		C178.23,119.9,182.7,124.38,182.7,129.9z"/>
	<path class="st2" d="M343.42,277.56c-3.02-8.72-9.45-13.89-16.01-17.33c5.61,3.9,10.76,9.48,13.28,18.46
		c3.21,11.43,1.23,19.24-1.25,24.04c0.69-0.74,1.32-1.47,1.83-2.19C344.37,296.18,347.25,288.67,343.42,277.56z"/>
	<path class="st2" d="M277.92,278.82c-19.43,7.5-39.73,7.36-61.08,2.58c-10.39-2.33-47.22-30.27-49.35-7.75
		c-1.01,10.65,11.82,15.87,19.89,18.91c21.47,8.1,50.43,12.76,73.45,10.23c13.85-1.52,28.34-4.62,41.25-9.86
		c6.56-2.66,14.67-5.79,17.02-13.3c5.78-18.47-16.62-14.34-25-9.02C288.77,274,283.38,276.72,277.92,278.82z"/>
	<path class="st3" d="M277.92,265.92c-19.43,7.5-39.73,7.36-61.08,2.58c-10.39-2.33-47.22-30.27-49.35-7.75
		c-1.01,10.65,11.82,15.87,19.89,18.91c21.47,8.1,50.43,12.76,73.45,10.23c13.85-1.52,28.34-4.62,41.25-9.86
		c6.56-2.66,14.67-5.79,17.02-13.3c5.78-18.47-16.62-14.34-25-9.02C288.77,261.1,283.38,263.81,277.92,265.92z"/>
	<path class="st0" d="M145.23,292.18c-1.34-15.88,7.01-25.47,17.32-31.93c-10.28,4.99-21.83,13.82-20.19,29.51
		c0.58,5.59,2.63,10.33,5.8,13.94C146.62,300.43,145.61,296.56,145.23,292.18z"/>
	<path class="st5" d="M281.45,277.07c-21.44,7.5-43.84,7.36-67.39,2.58c-11.46-2.33-52.1-30.27-54.45-7.75
		c-1.11,10.65,13.04,15.87,21.94,18.91c23.69,8.1,55.64,12.76,81.03,10.23c15.27-1.52,31.26-4.62,45.51-9.86
		c7.24-2.66,16.18-5.79,18.78-13.3c6.38-18.47-18.34-14.34-27.58-9.02C293.42,272.25,287.47,274.96,281.45,277.07z"/>
	<path d="M281.45,272.32c-21.44,7.5-43.84,7.36-67.39,2.58c-11.46-2.33-52.1-30.27-54.45-7.75c-1.11,10.65,13.04,15.87,21.94,18.91
		c23.69,8.1,55.64,12.76,81.03,10.23c15.27-1.52,31.26-4.62,45.51-9.86c7.24-2.66,16.18-5.79,18.78-13.3
		c6.38-18.47-18.34-14.34-27.58-9.02C293.42,267.5,287.47,270.21,281.45,272.32z"/>
	<path class="st6" d="M305.62,408.05H192.58c-4.91,0-8.93-4.02-8.93-8.93V324.8c0-4.91,4.02-8.93,8.93-8.93h113.04
		c4.91,0,8.93,4.02,8.93,8.93v74.33C314.55,404.04,310.53,408.05,305.62,408.05z"/>
	<path class="st3" d="M227.78,310.13c0.53,1.19,1.03,2.41,1.47,3.66c0.54,1.51,1.02,3.06,1.87,4.42c0.85,1.36,2.14,2.54,3.71,2.85
		c2.15,0.43,4.39-0.92,5.47-2.83c1.52-2.68,0.63-5.15,0.6-7.94c-0.07-8,0.62-16.01,0.37-24.03c-0.11-3.43,0.68-9.18-2.04-11.83
		c-1.55-1.51-5.13-1.19-7.05-1.11c-7.05,0.3-14.03,0.33-14.49,9.23c-0.19,3.66,1.02,7.23,2.21,10.7
		C221.97,299.23,225.26,304.45,227.78,310.13z"/>
	<path class="st3" d="M257.68,310.13c-0.53,1.19-1.03,2.41-1.47,3.66c-0.54,1.51-1.02,3.06-1.87,4.42
		c-0.85,1.36-2.14,2.54-3.71,2.85c-2.15,0.43-4.39-0.92-5.47-2.83c-1.52-2.68-0.63-5.15-0.6-7.94c0.07-8-0.62-16.01-0.37-24.03
		c0.11-3.43-0.68-9.18,2.04-11.83c1.55-1.51,5.13-1.19,7.05-1.11c7.05,0.3,14.03,0.33,14.49,9.23c0.19,3.66-1.02,7.23-2.21,10.7
		C263.49,299.23,260.2,304.45,257.68,310.13z"/>
</g>
</svg>
