<?xml version="1.0" encoding="utf-8"?>
<!-- Generator: Adobe Illustrator 24.3.0, SVG Export Plug-In . SVG Version: 6.00 Build 0)  -->
<svg version="1.1" id="Layer_1" xmlns="http://www.w3.org/2000/svg" xmlns:xlink="http://www.w3.org/1999/xlink" x="0px" y="0px"
	 viewBox="0 0 500 500" style="enable-background:new 0 0 500 500;" xml:space="preserve">
<style type="text/css">
	.st0{fill:#553982;}
	.st1{fill:#9365B8;}
	.st2{fill:#714D84;}
	.st3{fill:#FFFFFF;}
	.st4{fill:#2095F2;}
	.st5{fill:#28324E;}
	.st6{fill:#B8312F;}
	.st7{fill:#6E6D82;}
</style>
<g>
	
		<rect x="138.63" y="153.85" transform="matrix(0.7071 -0.7071 0.7071 0.7071 -92.8134 171.2858)" class="st0" width="43.45" height="87.66"/>
	
		<ellipse transform="matrix(0.2298 -0.9732 0.9732 0.2298 -60.0892 249.2709)" class="st1" cx="127.44" cy="162.6" rx="58.92" ry="58.92"/>
	<path class="st2" d="M169.16,204.19c10.63-10.66,17.2-25.36,17.2-41.6c0-32.54-26.38-58.92-58.92-58.92
		c-16.42,0-31.25,6.73-41.93,17.56L169.16,204.19z"/>
	
		<rect x="318.26" y="153.85" transform="matrix(0.7071 0.7071 -0.7071 0.7071 239.362 -182.5103)" class="st0" width="43.45" height="87.66"/>
	
		<ellipse transform="matrix(0.7071 -0.7071 0.7071 0.7071 -5.8538 311.0644)" class="st1" cx="372.56" cy="162.6" rx="58.92" ry="58.92"/>
	<path class="st2" d="M415.14,121.94l-86.49,79.84c10.79,12.08,26.44,19.73,43.91,19.73c32.54,0,58.92-26.38,58.92-58.92
		C431.48,146.82,425.24,132.52,415.14,121.94z"/>
	<rect x="213.35" y="132.29" class="st0" width="73.29" height="87.66"/>
	
		<ellipse transform="matrix(0.2298 -0.9732 0.9732 0.2298 113.0196 306.2634)" class="st1" cx="250" cy="81.73" rx="74.73" ry="74.73"/>
	<path class="st2" d="M250.73,7.04v149.38c40.93-0.4,74-33.67,74-74.69S291.66,7.43,250.73,7.04z"/>
	<ellipse class="st1" cx="248.9" cy="336.91" rx="102.75" ry="156.09"/>
	<path class="st2" d="M248.9,426.87c-49.28,0-90.43-52.7-100.42-123.02c-1.51,10.66-2.33,21.72-2.33,33.07
		c0,86.2,46,156.09,102.75,156.09c56.75,0,102.75-69.88,102.75-156.09c0-11.35-0.82-22.4-2.33-33.07
		C339.33,374.16,298.18,426.87,248.9,426.87z"/>
	<g>
		
			<ellipse transform="matrix(0.2298 -0.9732 0.9732 0.2298 113.0193 306.2636)" class="st3" cx="250" cy="81.73" rx="63.11" ry="63.11"/>
		<circle class="st4" cx="250" cy="81.73" r="52.62"/>
		<ellipse transform="matrix(0.2298 -0.9732 0.9732 0.2298 113.0192 306.2635)" cx="250" cy="81.73" rx="33.43" ry="33.43"/>
		<path class="st3" d="M294.59,52.05c0,14.03-11.37,25.4-25.4,25.4s-25.4-11.37-25.4-25.4s11.37-25.4,25.4-25.4
			S294.59,38.02,294.59,52.05z"/>
	</g>
	<g>
		
			<ellipse transform="matrix(0.1602 -0.9871 0.9871 0.1602 -53.4734 262.3463)" class="st3" cx="127.44" cy="162.6" rx="46.93" ry="46.93"/>
		
			<ellipse transform="matrix(0.9239 -0.3827 0.3827 0.9239 -52.5229 61.1457)" class="st4" cx="127.44" cy="162.6" rx="39.13" ry="39.13"/>
		<path d="M152.3,162.6c0,13.73-11.13,24.86-24.86,24.86c-13.73,0-24.86-11.13-24.86-24.86c0-13.73,11.13-24.86,24.86-24.86
			C141.17,137.74,152.3,148.87,152.3,162.6z"/>
		<path class="st3" d="M160.6,140.53c0,10.43-8.46,18.89-18.89,18.89s-18.89-8.46-18.89-18.89c0-10.43,8.46-18.89,18.89-18.89
			S160.6,130.1,160.6,140.53z"/>
	</g>
	<path class="st1" d="M335,276.12c0,66.37-38.55,120.17-86.1,120.17c-47.55,0-86.1-53.8-86.1-120.17c0-16.23,2.58-32.7,8.22-47.99
		c6.28-17.04,15.98-29.02,31.4-39.15c12.86-8.45,25.49-10.52,40.69-11.78c5.86-0.49,11.75-0.97,17.63-0.78
		c9.77,0.31,19.41,2.49,28.63,5.66C329.9,196.03,335,238.04,335,276.12z"/>
	<path class="st5" d="M333.51,284.06c0,66.97-37.88,121.26-84.61,121.26c-46.73,0-84.6-54.29-84.61-121.26
		c0-16.38,2.54-32.99,8.08-48.43c6.17-17.19,15.71-29.28,30.85-39.51c12.63-8.53,25.05-10.61,39.99-11.88
		c5.76-0.49,11.54-0.98,17.32-0.79c9.6,0.32,19.07,2.51,28.13,5.71C328.49,203.24,333.51,245.63,333.51,284.06z"/>
	<path d="M192.22,343.75c3.42-27.01,27.99-49.51,55.15-51.44s54.25,16.27,63.61,41.84c1.27,3.47,2.25,7.12,2.03,10.8
		c-0.2,3.34-1.39,6.54-2.66,9.63c-4.2,10.22-9.61,20.2-17.69,27.73c-20.75,19.34-54.69,17.73-79.44,3.87
		c-6.79-3.8-13.34-8.62-17.11-15.42c-4.61-8.33-4.42-18.38-4.11-27.9L192.22,343.75z"/>
	<g>
		<path class="st3" d="M249.04,189.32c-0.04,0-0.09,0-0.13,0c-16.05,0-31.71,5.05-45.07,13.85c-7.47,4.92-14.46,11.17-19.68,18.45
			c-3.12,4.34-10.93,16.04-5.43,20.9c3.5,3.09,11.02-0.77,14.95-1.4c6.34-1.01,6.12-6.74,6.79-12.57c-0.95,8.38,7.85,9.76,13.57,9.3
			c7.24-0.59,14.52,0.88,21.75,0.97c3.34,0.04,7.75,1.05,10.47-0.88c2.89-2.04,4.78-7.73,5.61-10.97c0.02,3.7,0.51,7.4,1.45,10.98
			c0.08,0.31,0.18,0.64,0.41,0.87c0.32,0.33,0.83,0.38,1.29,0.41c4.3,0.3,8.61,0.49,12.92,0.77c7.15,0.45,15.83,2.78,22.89,1.9
			c7.23-0.9,5.53-10.26,4.77-16.41c1.83,4.45,3.67,8.89,5.5,13.34c2.58,6.25,9.59,7.94,15.79,4.45
			c12.92-7.28-9.89-34.26-15.82-39.49C285.99,190.54,268.05,189.35,249.04,189.32z"/>
	</g>
	<path class="st0" d="M248.9,424.48c-20.99,0-39.92-7.98-53.3-20.76c12.17,16.11,31.51,26.53,53.3,26.53s41.14-10.42,53.3-26.53
		C288.82,416.5,269.9,424.48,248.9,424.48z"/>
	<path class="st6" d="M256.06,393.2c-15.04,1.7-32.1-2.3-36.43-11.86c-3.61-7.96,4.28-14.19,12.36-14.16
		c6.35,0.03,11.71,2.84,17.94,2.58c4.17-0.17,8.22-1.35,12.11-2.75c3.76-1.35,7.82-2.93,11.71-1.92c4.08,1.05,6.79,4.85,7.18,8.68
		C282.08,385.2,269.93,391.63,256.06,393.2z"/>
	<path class="st5" d="M259.69,290.81c0.27-1.13-0.55-2.3-1.59-2.82c-1.04-0.51-2.26-0.52-3.42-0.48c-2.27,0.08-7.05,0-8.44,2.3
		c-2.15,3.54,2.84,6.66,3.47,9.65c0.29,1.36-0.46,2.7-1.2,3.87c-1.22,1.93-2.55,3.89-2.94,6.15c-0.6,3.42,2.24,7.43,5.78,7.79
		c1.86,0.19,3.75-0.53,5.2-1.73c6.32-5.25,0.22-8.51-0.65-14.12c-0.47-3.03,0.35-6.31,2.42-8.6
		C258.86,292.2,259.5,291.61,259.69,290.81z"/>
	<g>
		<path class="st3" d="M248.85,381.85c-4.63,0.2-10.78,1.24-8.11,5.74c-1.69-2.85-4.02-6.55-7.15-7.87c-1.83-0.77-7.79-1.74-9.6-0.7
			c-1.07,0.61-3.26,4.68-2.53,5.57c-3.72-4.56-5.18-7.27-10.72-8.83c-0.55-0.15-8.06-1.62-7.25-2.91c-3.46,5.57,1.02,7.8,5.49,11.48
			c3.83,3.15,7.95,5.96,12.34,8.26c8.5,4.46,17.95,6.98,27.58,6.98c9.22,0,18.3-2.32,26.53-6.44c3.8-1.91,21.53-10.5,19.81-15.61
			c-2.1-6.22-15.61-0.25-19.07,0.99c-3.47,1.24-12.62,4.26-10.37,9.63c-2.83-6.76-6.57-6.08-12.82-6.3
			C252.26,381.82,250.68,381.77,248.85,381.85z"/>
	</g>
	<path class="st7" d="M252.22,312.14c-0.56-0.55-1.37-0.77-2.1-1.11c-0.69-0.32-1.47-0.73-1.63-1.48c-0.05-0.24-0.05-0.52-0.23-0.68
		c-0.17-0.14-0.44-0.12-0.62,0.01c-0.18,0.13-0.29,0.33-0.38,0.54c-0.74,1.78-0.01,4.45,1.72,5.39c1.69,0.92,5.18,0.25,3.55-2.31
		C252.43,312.37,252.33,312.25,252.22,312.14z"/>
	<g>
		
			<ellipse transform="matrix(0.1602 -0.9871 0.9871 0.1602 152.3848 504.3036)" class="st3" cx="372.56" cy="162.6" rx="46.93" ry="46.93"/>
		
			<ellipse transform="matrix(0.9239 -0.3827 0.3827 0.9239 -33.8642 154.9498)" class="st4" cx="372.56" cy="162.6" rx="39.13" ry="39.13"/>
		<path d="M397.42,162.6c0,13.73-11.13,24.86-24.86,24.86c-13.73,0-24.86-11.13-24.86-24.86c0-13.73,11.13-24.86,24.86-24.86
			C386.29,137.74,397.42,148.87,397.42,162.6z"/>
		<path class="st3" d="M405.72,140.53c0,10.43-8.46,18.89-18.89,18.89c-10.43,0-18.89-8.46-18.89-18.89
			c0-10.43,8.46-18.89,18.89-18.89C397.26,121.64,405.72,130.1,405.72,140.53z"/>
	</g>
</g>
</svg>
