<?xml version="1.0" encoding="utf-8"?>
<!-- Generator: Adobe Illustrator 24.3.0, SVG Export Plug-In . SVG Version: 6.00 Build 0)  -->
<svg version="1.1" id="Layer_1" xmlns="http://www.w3.org/2000/svg" xmlns:xlink="http://www.w3.org/1999/xlink" x="0px" y="0px"
	 viewBox="0 0 500 500" style="enable-background:new 0 0 500 500;" xml:space="preserve">
<style type="text/css">
	.st0{fill:#553982;}
	.st1{fill:#231F20;}
	.st2{fill:#9365B8;}
	.st3{fill:#B293C4;}
	.st4{fill:#28324E;}
	.st5{fill:#FFFFFF;}
	.st6{fill:#FBA026;}
</style>
<g>
	<path class="st0" d="M330.48,437.25c9.08,2.41,20.63,0.23,24.68-7.06c4.54-8.17-0.74-28.49-10.78-30.76
		c-8.49-1.92-23.09,14.16-25.22,20.77C316.24,429.3,322.38,435.1,330.48,437.25z"/>
	<path class="st0" d="M166.8,437.25c-9.08,2.41-20.63,0.23-24.68-7.06c-4.54-8.17,0.74-28.49,10.78-30.76
		c8.49-1.92,23.09,14.16,25.22,20.77C181.04,429.3,174.9,435.1,166.8,437.25z"/>
	<path class="st1" d="M183.95,421.47c-9.55-8.19-57.3-50.25-59-74.12c-1.79-25.06,48.14-59.68,58.17-66.36l8.42,12.64
		c-25.34,16.91-52.22,41.85-51.44,52.65c0.92,12.93,31.98,45.02,53.74,63.68L183.95,421.47z"/>
	<path class="st1" d="M323.77,421.47l-9.89-11.53c21.76-18.66,52.82-50.75,53.74-63.68c0.85-11.95-30.19-38.48-51.44-52.65
		l8.42-12.64c10.03,6.68,59.96,41.3,58.17,66.36C381.07,371.23,333.32,413.28,323.77,421.47z"/>
	<ellipse class="st2" cx="254.39" cy="201.94" rx="102.59" ry="104.41"/>
	<path class="st2" d="M340.76,478.68c-9.68,0-17.8,4.53-20.76,10.8c9.16-40.2,14.57-88.7,14.57-141.06
		c0-138.39-37.4-250.58-83.53-250.58c-46.13,0-83.53,112.19-83.53,250.58c0,52.67,5.47,101.43,14.72,141.77
		c-2.66-6.63-11.08-11.49-21.12-11.49c-11.65,0-21.17,6.54-21.96,14.81h43.93c-0.01-0.06-0.03-0.11-0.04-0.17
		c15.15-27.96,39.94-46.21,68-46.21c27.96,0,52.69,18.14,67.85,45.95c-0.02,0.14-0.08,0.27-0.09,0.41h43.93
		C361.93,485.22,352.42,478.68,340.76,478.68z"/>
	<ellipse class="st2" cx="251.04" cy="142.77" rx="205.62" ry="136.27"/>
	<path class="st3" d="M310.87,273.29c-11.88,19.77-33.47,33.04-58.21,33.04c-26.6,0-49.57-15.32-60.72-37.59
		c-4.06,22.8-6.34,48.32-6.34,75.27c0,27.5-5.86,70.04,28.52,78.16c9.29,2.19,25.84-9.2,36.91-9.2c16.17,0,33.91,15.64,49.39,8.2
		c1.83-0.88,3.46-2.03,4.92-3.41c15.63-14.78,11.12-55.94,11.12-73.75C316.45,318.83,314.45,294.92,310.87,273.29z"/>
	<circle class="st2" cx="374.71" cy="97.4" r="82.85"/>
	<circle class="st2" cx="125.95" cy="97.4" r="82.85"/>
	<path class="st3" d="M266.71,252.92c0,6.48-6.29,11.73-14.04,11.73c-7.76,0-14.04-5.25-14.04-11.73c0-6.48,6.29-11.73,14.04-11.73
		C260.42,241.18,266.71,246.44,266.71,252.92z"/>
	<path class="st4" d="M264.39,256.71c0,6.48-5.25,11.73-11.73,11.73c-6.48,0-11.73-5.25-11.73-11.73c0-6.48,5.25-11.73,11.73-11.73
		C259.14,244.98,264.39,250.23,264.39,256.71z"/>
	<path class="st5" d="M172.71,31.29L62.42,103.5c2.26,40.02,35.34,71.8,75.92,71.8c42.05,0,76.14-34.09,76.14-76.14
		C214.48,69.49,197.47,43.85,172.71,31.29z"/>
	<path class="st6" d="M160.06,39.57L75.05,95.23c-0.08,1.31-0.2,2.6-0.2,3.93c0,35.06,28.42,63.49,63.48,63.49
		s63.49-28.42,63.49-63.49C201.82,71.74,184.41,48.45,160.06,39.57z"/>
	<path d="M138.34,162.65c14.97,0,28.7-5.21,39.55-13.88c-3.67-18.5-19.98-32.45-39.55-32.45s-35.89,13.95-39.55,32.45
		C109.64,157.43,123.37,162.65,138.34,162.65z"/>
	<g>
		<path d="M44.49,112.78L204.86,10.23L44.49,112.78z"/>
		<polygon points="42.44,109.59 204.86,10.23 46.53,115.98 		"/>
	</g>
	<path class="st5" d="M173.38,120.68c0,7.26-5.89,13.15-13.15,13.15c-7.26,0-13.15-5.89-13.15-13.15s5.89-13.15,13.15-13.15
		C167.5,107.54,173.38,113.42,173.38,120.68z"/>
	<path class="st5" d="M327.28,31.29c-24.76,12.57-41.77,38.21-41.77,67.87c0,42.05,34.09,76.14,76.14,76.14
		c40.58,0,73.66-31.78,75.92-71.8L327.28,31.29z"/>
	<path class="st6" d="M339.93,39.57c-24.35,8.88-41.76,32.17-41.76,59.59c0,35.06,28.42,63.49,63.49,63.49
		c35.06,0,63.49-28.42,63.49-63.49c0-1.33-0.12-2.62-0.2-3.93L339.93,39.57z"/>
	<path d="M361.65,162.65c-14.97,0-28.7-5.21-39.55-13.88c3.67-18.5,19.98-32.45,39.55-32.45c19.58,0,35.89,13.95,39.55,32.45
		C390.35,157.43,376.62,162.65,361.65,162.65z"/>
	<g>
		<path d="M455.51,112.78L295.13,10.23L455.51,112.78z"/>
		<polygon points="457.55,109.59 295.13,10.23 453.46,115.98 		"/>
	</g>
	<circle class="st5" cx="387.85" cy="120.68" r="13.15"/>
</g>
</svg>
