<?xml version="1.0" encoding="utf-8"?>
<!-- Generator: Adobe Illustrator 24.3.0, SVG Export Plug-In . SVG Version: 6.00 Build 0)  -->
<svg version="1.1" id="Layer_1" xmlns="http://www.w3.org/2000/svg" xmlns:xlink="http://www.w3.org/1999/xlink" x="0px" y="0px"
	 viewBox="0 0 500 500" style="enable-background:new 0 0 500 500;" xml:space="preserve">
<style type="text/css">
	.st0{fill:#D14841;}
	.st1{fill:#BB4039;}
	.st2{fill:#F99C32;}
	.st3{fill:#FDC006;}
	.st4{fill:#FFFFFF;}
	.st5{fill:#B8312F;}
</style>
<g>
	<path class="st0" d="M354.16,203.43c0.22-0.31,0.42-0.62,0.63-0.92l-13.51-13.21c-6.43,1.46-12.92-6.93-6.89-12.26
		c5.9-5.21,11.29-10.98,17.96-15.27c3.61-2.32,7.6-3.84,11.65-5.2c-0.77-27.98-5.25-54.78-20.44-55.06
		c-7.57-0.14-14.43,6.65-21.35,12.63c-21.76,18.81-44.98,31.62-68.42,30.8l0-0.11c-0.29,0.01-0.58,0.02-0.87,0.04
		c-0.29-0.03-0.58-0.05-0.87-0.07c0,0,0,0.11-0.03,0.11c-23.43-0.01-46.19-13.64-67.26-33.21c-6.7-6.22-13.32-13.25-20.89-13.38
		c-14.81-0.26-20.34,25.04-22.24,52.2l40.66,29.73l-30.99,27.24l-10.38-0.8c0,0.9,0.02,1.8,0.02,2.7c-0.51,1.97-0.83,4.01-0.86,6.13
		l-4.33,244.09c-0.26,14.54,11.43,26.65,25.97,26.91l21.58,0.38c8.67,0.51,17.35,1.03,26.03,1.4c2.2,0.09,3.98,0.11,5.43,0.02
		l0.63-35.4c0.26-14.54,12.37-26.23,26.91-25.97l11.27,0.2c14.54,0.26,26.23,12.37,25.97,26.91l-0.61,34.54l50.86,0.9
		c14.54,0.26,26.65-11.43,26.91-25.97l3.7-208.41c0.88-13.74,1.44-27.35,2.05-41.16C356.61,215.37,349.78,209.44,354.16,203.43z"/>
	<path class="st1" d="M352.35,161.77c3.61-2.32,7.6-3.84,11.65-5.2c-0.77-27.98-5.25-54.78-20.44-55.06
		c-7.57-0.14-14.43,6.65-21.35,12.63c-21.26,18.38-43.92,30.99-66.81,30.8v282.33c13.66,1.21,24.36,12.86,24.12,26.78l-0.61,34.54
		l50.86,0.9c14.54,0.26,26.65-11.43,26.91-25.97l3.7-208.41c0.88-13.74,1.43-27.35,2.05-41.16c-5.81,1.41-12.64-4.52-8.26-10.53
		c0.22-0.31,0.42-0.62,0.63-0.92l-13.51-13.21c-6.43,1.46-12.92-6.93-6.89-12.26C340.29,171.82,345.68,166.05,352.35,161.77z"/>
	<path class="st2" d="M282.01,134.99c-11.38,8.09-25.28,7-37.64,6.57c-13.74-0.48-44.27-14.66-36.71-41.64
		c2.03-7.23,6.99-12.04,10.64-17.99c3.65-5.95,5.87-15.36,2.03-20.96c5.84,4.68,12.37,7.88,17.67,13.62
		c5.3,5.74,9.28,15.16,7.4,24.09c7.08-2.49,10.71-13.64,10.78-23.55c0.07-9.91-2.34-19.55-2.62-29.45
		c-0.35-12.67,2.96-25.52,9.07-35.19c-3.46,12.88-0.04,26.99,3.36,39.79c0.96,3.62,1.95,7.3,3.71,10.31
		c2.08,3.56,5.08,5.91,7.32,9.27c4.38,6.55,5.36,15.97,6.15,24.79c3.07-3.07,5.2-7.86,5.75-12.97c4.04,3.95,6.99,9.94,8.02,16.57
		C299.23,112.87,291.81,128.03,282.01,134.99z"/>
	<path class="st3" d="M273.3,122.86c-8.06,5.58-17.91,4.82-26.66,4.52c-9.73-0.33-31.37-10.13-26.02-28.75
		c1.43-4.99,4.95-8.31,7.53-12.41c2.59-4.1,4.16-10.6,1.43-14.47c4.14,3.23,8.77,5.44,12.52,9.41c3.76,3.96,6.58,10.47,5.25,16.63
		c5.01-1.72,7.58-9.41,7.63-16.26c0.05-6.84-1.66-13.5-1.86-20.33c-0.25-8.75,2.09-17.61,6.42-24.29
		c-2.45,8.89-0.02,18.63,2.4,27.47c0.68,2.5,1.39,5.04,2.63,7.12c1.47,2.46,3.6,4.08,5.19,6.4c3.1,4.52,3.8,11.03,4.37,17.11
		c2.18-2.12,3.68-5.42,4.07-8.95c2.86,2.73,4.95,6.86,5.69,11.44C285.49,107.6,280.25,118.06,273.3,122.86z"/>
	<g>
		<path class="st4" d="M164.21,169.18c-13.93,7.23-23.56,21.67-23.86,38.46c-0.43,24.4,19,44.53,43.4,44.97
			c24.4,0.43,44.53-19,44.97-43.4c0-0.18-0.02-0.36-0.02-0.54L164.21,169.18z"/>
		<path class="st3" d="M171.85,173.86c-13.86,5.09-23.88,18.26-24.16,33.91c-0.36,20.35,15.84,37.13,36.19,37.49
			c20.35,0.36,37.13-15.84,37.49-36.19c0.03-1.72-0.1-3.41-0.3-5.07L171.85,173.86z"/>
		<ellipse transform="matrix(0.4787 -0.878 0.878 0.4787 -85.5778 257.258)" cx="173.84" cy="200.69" rx="23.41" ry="23.41"/>
		<path class="st4" d="M192.64,186.23c-0.66,1.38-1.05,2.92-1.08,4.56c-0.11,6.12,4.76,11.16,10.88,11.27
			c3.65,0.07,6.9-1.65,8.97-4.33L192.64,186.23z"/>
		<g>
			<g>
				<polygon points="143.56,151.15 235.08,213.09 141.13,154.83 				"/>
			</g>
		</g>
	</g>
	<g>
		<path class="st4" d="M340.69,172.32l-65.85,37.18c-0.01,0.18-0.03,0.35-0.04,0.53c-0.43,24.4,19,44.53,43.4,44.97
			c24.4,0.43,44.53-19,44.97-43.4C363.47,194.8,354.36,180.04,340.69,172.32z"/>
		<path class="st3" d="M332.89,176.72l-50.26,28.38c-0.26,1.66-0.45,3.34-0.48,5.06c-0.36,20.35,15.84,37.13,36.19,37.49
			c20.35,0.36,37.13-15.84,37.49-36.19C356.1,195.81,346.56,182.3,332.89,176.72z"/>
		<path d="M317.47,184.12l-31.21,17.76c1.02,9.7,9.13,17.35,19.13,17.52c10.83,0.19,19.76-8.43,19.95-19.25
			C325.46,193.6,322.34,187.76,317.47,184.12z"/>
		<path class="st4" d="M330.97,177.05l-14.13,7.98c-0.14,0.66-0.22,1.34-0.24,2.04c-0.11,5.97,4.65,10.9,10.62,11
			c5.97,0.11,10.9-4.65,11-10.62C338.32,182.65,335.27,178.54,330.97,177.05z"/>
		<g>
			<g>
				<polygon points="364.27,159.52 268.5,213.16 361.98,155.76 				"/>
			</g>
		</g>
	</g>
	<path class="st5" d="M231.92,319.83c0,0,0.62-0.19,1.69-0.42c1.08-0.18,2.61-0.57,4.46-0.8c1.84-0.27,3.99-0.48,6.29-0.6
		c1.15-0.04,2.34-0.09,3.54-0.14c1.21-0.01,2.43-0.01,3.66-0.02c1.22,0.05,2.45,0.1,3.65,0.14c1.21,0.02,2.39,0.18,3.54,0.26
		c2.29,0.2,4.43,0.49,6.27,0.83c1.83,0.29,3.36,0.75,4.42,0.96c1.07,0.27,1.68,0.48,1.68,0.48s-0.62,0.2-1.69,0.42
		c-1.07,0.18-2.61,0.58-4.46,0.81c-1.84,0.27-3.99,0.48-6.29,0.6c-1.15,0.04-2.34,0.16-3.54,0.14c-1.21,0-2.43,0.01-3.66,0.01
		c-1.22-0.05-2.45-0.1-3.65-0.15c-1.2-0.09-2.39-0.18-3.54-0.26c-2.29-0.21-4.43-0.49-6.27-0.83c-1.83-0.3-3.36-0.74-4.42-0.96
		C232.53,320.05,231.92,319.83,231.92,319.83z"/>
	<path class="st5" d="M329.96,478.41l-50.86-0.9l-0.2,11.09l50.86,0.9c14.54,0.26,26.65-11.43,26.91-25.97l0.2-11.09
		C356.61,466.98,344.5,478.67,329.96,478.41z"/>
	<path class="st5" d="M214.94,477.22c-1.45,0.09-3.23,0.07-5.43-0.02c-8.68-0.36-17.35-0.89-26.03-1.4l-21.58-0.38
		c-14.54-0.26-26.23-12.37-25.97-26.91l-0.2,11.09c-0.26,14.54,11.43,26.65,25.97,26.91l21.58,0.38c8.67,0.51,17.35,1.03,26.03,1.4
		c2.2,0.09,3.98,0.11,5.43,0.02L214.94,477.22z"/>
	<path class="st0" d="M187.86,309.86c0,0,2.12-0.64,5.82-1.4c3.7-0.6,8.99-1.9,15.32-2.65c6.34-0.89,13.72-1.58,21.63-1.99
		c3.95-0.15,8.04-0.3,12.19-0.45c4.15-0.02,8.36-0.03,12.58-0.05c4.21,0.16,8.42,0.33,12.57,0.48c4.15,0.08,8.22,0.61,12.16,0.87
		c7.89,0.68,15.25,1.64,21.55,2.75c6.3,0.98,11.54,2.48,15.22,3.21c3.67,0.89,5.77,1.61,5.77,1.61s-2.12,0.65-5.82,1.4
		c-3.7,0.6-8.99,1.91-15.32,2.67c-6.34,0.89-13.72,1.59-21.63,1.99c-3.95,0.13-8.04,0.51-12.19,0.44
		c-4.15,0.01-8.36,0.03-12.58,0.04c-4.21-0.17-8.42-0.33-12.57-0.49c-4.14-0.3-8.22-0.6-12.16-0.88
		c-7.89-0.69-15.25-1.65-21.55-2.76c-6.3-0.98-11.54-2.47-15.22-3.2C189.96,310.58,187.86,309.86,187.86,309.86z"/>
	<path d="M162.9,307.89c0,0,2.78-0.14,7.64-0.29c4.86-0.1,11.81-0.38,20.14-0.48c8.33-0.14,18.05-0.2,28.46-0.17
		c5.21,0.03,10.58,0.06,16.05,0.09c5.46,0.07,11.02,0.14,16.57,0.22c5.55,0.12,11.1,0.25,16.56,0.37c5.46,0.1,10.84,0.32,16.04,0.47
		c10.4,0.34,20.11,0.75,28.44,1.18c8.32,0.39,15.25,0.92,20.11,1.19c4.85,0.32,7.62,0.56,7.62,0.56s-2.78,0.15-7.64,0.29
		c-4.86,0.1-11.81,0.38-20.14,0.48c-8.33,0.14-18.05,0.2-28.46,0.17c-5.2-0.04-10.58,0-16.05-0.1c-5.46-0.07-11.02-0.15-16.57-0.22
		c-5.55-0.12-11.1-0.25-16.56-0.37c-5.46-0.16-10.84-0.32-16.04-0.48c-10.4-0.34-20.11-0.75-28.44-1.18
		c-8.32-0.4-15.25-0.91-20.11-1.19C165.67,308.13,162.9,307.89,162.9,307.89z"/>
	<path class="st3" d="M162.94,305.69c0,0,2.78-0.14,7.64-0.29c4.86-0.1,11.81-0.38,20.14-0.48c8.33-0.14,18.05-0.2,28.46-0.17
		c5.2,0.03,10.58,0.06,16.05,0.09c5.46,0.07,11.02,0.14,16.57,0.22c5.55,0.12,11.1,0.25,16.56,0.37c5.46,0.1,10.84,0.32,16.04,0.47
		c10.4,0.34,20.11,0.75,28.44,1.18c8.32,0.39,15.25,0.92,20.11,1.19c4.85,0.32,7.62,0.56,7.62,0.56s-2.78,0.15-7.64,0.29
		c-4.86,0.1-11.81,0.38-20.14,0.48c-8.33,0.14-18.05,0.2-28.46,0.17c-5.2-0.04-10.58,0-16.05-0.1c-5.46-0.07-11.02-0.15-16.57-0.22
		c-5.55-0.12-11.1-0.25-16.56-0.37c-5.46-0.16-10.84-0.32-16.04-0.48c-10.4-0.34-20.11-0.75-28.44-1.18
		c-8.32-0.4-15.25-0.92-20.11-1.19C165.71,305.93,162.94,305.69,162.94,305.69z"/>
</g>
</svg>
