<svg xmlns="http://www.w3.org/2000/svg" width="755.695" height="1468.322" viewBox="0 0 755.695 1468.322">
  <g id="BG_Texture" data-name="BG Texture" transform="translate(238.933 -480.24)">
    <path id="Path_33" data-name="Path 33" d="M-115.685,909.118l51.927,51.927a92.191,92.191,0,0,1-.005,130.382l-29.749,29.744a16.077,16.077,0,0,0,0,22.736l.295.294a16.574,16.574,0,0,0,23.481.066c9.968-9.971,78.886-78.891,94.39-94.4a84.09,84.09,0,0,1,118.922,0h0a84.091,84.091,0,0,1,0,118.922l-288.088,288.089,8.643,63.43L-31,1415.436a117.216,117.216,0,0,1,165.769,0h0a117.217,117.217,0,0,1,0,165.77L-25.593,1741.57a17.838,17.838,0,0,0,0,25.226h0a17.838,17.838,0,0,0,25.226,0l237.484-237.484a66.253,66.253,0,0,1,93.7,0h0a66.252,66.252,0,0,1,0,93.7L166.3,1787.517a19.111,19.111,0,0,0,0,27.027h0a19.111,19.111,0,0,0,27.028,0l2.88-2.88a139.9,139.9,0,0,1,197.848,0l122.7,122.7H-194.9" fill="#54acd2"/>
    <circle id="Ellipse_17" data-name="Ellipse 17" cx="128.58" cy="128.58" r="128.58" transform="translate(-238.933 662.08) rotate(-45)" fill="#ccdb38"/>
    <path id="Path_34" data-name="Path 34" d="M42.651,949.181a73.894,73.894,0,1,0-73.886-73.886A73.978,73.978,0,0,0,42.651,949.181Zm0-14.562a59.332,59.332,0,1,1,59.324-59.324A59.325,59.325,0,0,1,42.651,934.619Z" fill="#a4e3db"/>
    <circle id="Ellipse_18" data-name="Ellipse 18" cx="34.78" cy="34.78" r="34.78" transform="translate(420.296 1806.606) rotate(-67.5)" fill="#ccdb38"/>
    <circle id="Ellipse_19" data-name="Ellipse 19" cx="37.79" cy="37.79" r="37.79" transform="translate(66.58 1170.562)" fill="#28324e"/>
    <circle id="Ellipse_20" data-name="Ellipse 20" cx="15.435" cy="15.435" r="15.435" transform="translate(232.163 1692.089)" fill="#28324e"/>
    <line id="Line_5" data-name="Line 5" x1="251.849" y2="251.849" transform="translate(-100.786 1694.592)" fill="none" stroke="#fff" stroke-linecap="round" stroke-miterlimit="10" stroke-width="3"/>
    <line id="Line_6" data-name="Line 6" x1="131.87" y2="131.87" transform="translate(-135.264 1244.544)" fill="none" stroke="#fff" stroke-linecap="round" stroke-miterlimit="10" stroke-width="3"/>
    <circle id="Ellipse_21" data-name="Ellipse 21" cx="16.483" cy="16.483" r="16.483" transform="translate(104.011 1302.241)" fill="#a4e3db"/>
    <circle id="Ellipse_22" data-name="Ellipse 22" cx="16.483" cy="16.483" r="16.483" transform="translate(113.958 1826.372)" fill="#f8f2e9"/>
    <path id="Path_35" data-name="Path 35" d="M-135.732,1664.908l120.587-120.586a28.655,28.655,0,0,1,40.527,0h0a28.655,28.655,0,0,1,0,40.527L-39.063,1649.3a9.865,9.865,0,0,0,0,13.952h0a9.865,9.865,0,0,0,13.952,0l21.925-21.925a15.5,15.5,0,0,1,21.924,0h0a15.5,15.5,0,0,1,0,21.925l-59.089,59.089a41.888,41.888,0,0,0-7.538,48.953,41.833,41.833,0,0,0,7.538,10.26l1.62,1.62L-153.67,1898.108S-137.061,1664.908-135.732,1664.908Z" fill="#bfefe5"/>
    <line id="Line_7" data-name="Line 7" y1="232.05" x2="232.05" transform="translate(-197.596 1104.337)" fill="none" stroke="#2c316d" stroke-linecap="round" stroke-miterlimit="10" stroke-width="3"/>
    <line id="Line_8" data-name="Line 8" y1="58.198" x2="58.198" transform="translate(65.701 797.959)" fill="#28324e"/>
  </g>
</svg>
