<svg xmlns="http://www.w3.org/2000/svg" width="442.218" height="614.322" viewBox="0 0 442.218 614.322">
  <g id="WISP_Logo" data-name="WISP Logo" transform="translate(-192.891 -391.178)">
    <circle id="Ellipse_34" data-name="Ellipse 34" cx="89.815" cy="89.815" r="89.815" transform="translate(253.722 408.341)" fill="#54acd2"/>
    <circle id="Ellipse_35" data-name="Ellipse 35" cx="68.988" cy="68.988" r="68.988" transform="translate(372.176 518.985)" fill="#54acd2"/>
    <path id="Path_49" data-name="Path 49" d="M635.109,700.336c0,40.887-15.736,83.352-31.063,120.609-18.738,45.582-54.251,87.021-37.245,139,3.45,10.542,8.452,22.893,1.911,31.858-3.732,5.13-10.234,7.323-16.39,8.849-73.9,18.354-158.432-17.583-209.144-71.488-25.061-26.651-51.327-59.561-66.166-92.869-18.455-41.426-37.629-89.816-37.629-135.949,0-75,88.584-135.8,197.857-135.8S635.109,625.333,635.109,700.336Z" fill="#54acd2"/>
    <circle id="Ellipse_36" data-name="Ellipse 36" cx="68.989" cy="68.989" r="68.989" transform="translate(455.497 447.38)" fill="#54acd2"/>
    <path id="Path_50" data-name="Path 50" d="M524.478,447.394h-.18V585.369h.18a68.988,68.988,0,0,0,0-137.975Z" fill="#4a97b8"/>
    <path id="Path_51" data-name="Path 51" d="M343.537,408.341c-.885,0-1.769.038-2.642.064v179.5c.885.026,1.757.065,2.642.065a89.816,89.816,0,1,0,0-179.632Z" fill="#4a97b8"/>
    <path id="Path_52" data-name="Path 52" d="M558.837,684.33c0,42.272-52.738,76.529-117.788,76.529s-117.788-34.27-117.788-76.529c0-18.11,14.877-39.669,31.127-47.8,14.364-7.182,30.1-1.718,44.747,1.193,22.265,4.412,39.99,5.348,61.639.026,20.585-5.066,49.493-16.109,69.488-5.733C548.141,641.288,558.837,665.066,558.837,684.33Z" fill="#98bbd4"/>
    <g id="Group_19" data-name="Group 19">
      <g id="Group_18" data-name="Group 18">
        <g id="Group_15" data-name="Group 15">
          <path id="Path_53" data-name="Path 53" d="M272.831,669.478A5.835,5.835,0,1,1,267,663.642,5.84,5.84,0,0,1,272.831,669.478Z" fill="#b8cee0"/>
        </g>
        <g id="Group_16" data-name="Group 16">
          <path id="Path_54" data-name="Path 54" d="M295.019,676.48a8.76,8.76,0,1,1-8.76-8.759A8.763,8.763,0,0,1,295.019,676.48Z" fill="#b8cee0"/>
        </g>
        <g id="Group_17" data-name="Group 17">
          <circle id="Ellipse_37" data-name="Ellipse 37" cx="4.373" cy="4.373" r="4.373" transform="translate(278.975 653.42)" fill="#b8cee0"/>
        </g>
      </g>
    </g>
    <circle id="Ellipse_38" data-name="Ellipse 38" cx="72.693" cy="72.693" r="72.693" transform="translate(268.455 429.839)" fill="#fff"/>
    <circle id="Ellipse_39" data-name="Ellipse 39" cx="60.612" cy="60.612" r="60.612" transform="translate(280.537 441.921)" fill="#ccdb38"/>
    <path id="Path_55" data-name="Path 55" d="M379.666,502.53a38.5,38.5,0,1,1-38.5-38.5A38.5,38.5,0,0,1,379.666,502.53Z"/>
    <circle id="Ellipse_40" data-name="Ellipse 40" cx="29.267" cy="29.267" r="29.267" transform="translate(333.983 439.083)" fill="#fff"/>
    <path id="Path_56" data-name="Path 56" d="M557.311,664.181c.731,42.26-51.4,77.427-116.455,78.555s-118.365-32.23-119.1-74.489c-.308-18.11,14.2-39.926,30.306-48.326,14.236-7.439,30.063-2.232,44.761.423,22.342,4.027,40.079,4.655,61.639-1.039,20.495-5.412,49.21-16.955,69.385-6.926C545.883,621.319,556.977,644.917,557.311,664.181Z" fill="#98bbd4"/>
    <path id="Path_57" data-name="Path 57" d="M558.837,677.083c0,42.273-52.738,76.529-117.788,76.529s-117.788-34.269-117.788-76.529c0-18.109,14.877-39.669,31.127-47.8,14.364-7.2,30.1-1.719,44.747,1.193,22.265,4.412,39.99,5.348,61.639.025,20.585-5.066,49.493-16.108,69.488-5.732C548.141,634.041,558.837,657.82,558.837,677.083Z" fill="#28324e"/>
    <path id="Path_58" data-name="Path 58" d="M441.036,769.58c-37.091,0-70.527-9.2-94.177-23.907,21.495,18.559,55.675,30.563,94.177,30.563s72.681-12,94.177-30.563C511.563,760.4,478.14,769.58,441.036,769.58Z" fill="#4d9dc0"/>
    <path id="Path_59" data-name="Path 59" d="M435.329,922.8c-31.948-2.949-60-14.762-79.171-31.293,17.006,20.2,45.466,34.872,78.632,37.924s63.575-6.194,83.6-22.97C496.826,919.252,467.277,925.754,435.329,922.8Z" fill="#4d9dc0"/>
    <path id="Path_60" data-name="Path 60" d="M471.163,956.458c-31.782,5.669-61.524,1.706-83.558-9.221,20.636,15.044,51.366,21.675,84.353,15.788s60.831-22.97,77.029-44.581C530.48,936.592,502.944,950.789,471.163,956.458Z" fill="#4d9dc0"/>
    <path id="Path_61" data-name="Path 61" d="M487.682,979.647c-27.575,7.323-54.008,4.989-74.118-4.643,19.161,13.8,46.633,18.712,75.259,11.107s51.969-26.01,64.755-48.3C538.521,956.792,515.256,972.323,487.682,979.647Z" fill="#4d9dc0"/>
    <path id="Path_62" data-name="Path 62" d="M565.108,954.009a130.633,130.633,0,0,1-67.987,50.9c5.566.437,11.133.6,16.686.539,1.706-.769,3.412-1.577,5.117-2.437a108.508,108.508,0,0,0,46.98-46.158C565.609,955.907,565.339,954.958,565.108,954.009Z" fill="#4d9dc0"/>
    <path id="Path_63" data-name="Path 63" d="M452.848,749.47c-29.383,2.129-62.729-2.873-71.194-14.814-7.041-9.939,8.363-17.724,24.151-17.686,12.4.039,22.867,3.553,35.051,3.232a120.887,120.887,0,0,0,23.65-3.424c7.349-1.68,15.288-3.655,22.894-2.4,7.964,1.309,13.261,6.067,14.031,10.851C503.7,739.466,479.961,747.495,452.848,749.47Z" fill="#98bbd4"/>
    <path id="Path_64" data-name="Path 64" d="M389.555,504.839s-.1,2.552-.282,7.31c-.052,1.193-.1,2.514-.167,3.989q-.288,2.193-.616,4.771c-.2,1.731-.436,3.578-.679,5.553-.3,1.962-.808,4.027-1.244,6.22a147.637,147.637,0,0,1-3.771,14.339,121.278,121.278,0,0,1-6.785,16.173,107.045,107.045,0,0,1-25.933,33.32c-11.812,10.338-27.946,17.956-45.9,20.405a49.731,49.731,0,0,1-6.81.513,57.734,57.734,0,0,1-7.028.116,85.261,85.261,0,0,1-13.736-1.719c-4.8-.7-9.234-2.424-13.839-3.822-2.231-.885-4.412-1.923-6.63-2.885a45.933,45.933,0,0,1-6.452-3.348,67.791,67.791,0,0,1-6.246-3.809q-2.962-2.154-5.963-4.322c-1.95-1.5-3.707-3.245-5.592-4.835-.924-.821-1.886-1.6-2.783-2.463l-2.553-2.706c-1.654-1.847-3.514-3.527-5.027-5.515l-4.669-5.874c-1.539-1.975-2.8-4.168-4.206-6.246l-2.078-3.155-1.821-3.322c-5.156-8.721-8.7-18.378-11.389-28.228l-1.86-7.465c-.5-2.513-.821-5.066-1.244-7.6l-.59-3.822-.269-3.848-.5-7.733.154-7.708.1-3.809.423-3.887c.308-2.59.526-5.207.924-7.785l1.552-7.618c2.5-10.016,5.861-19.9,10.9-28.9a104.786,104.786,0,0,1,18.058-24.651l2.63-2.744c.923-.872,1.9-1.668,2.847-2.5,1.936-1.616,3.771-3.361,5.784-4.848l6.156-4.31a69.147,69.147,0,0,1,6.426-3.77,46.927,46.927,0,0,1,6.63-3.3c2.271-.949,4.515-1.963,6.8-2.8,4.707-1.321,9.286-2.95,14.057-3.54a86.575,86.575,0,0,1,14.12-1.424c.68-.013.949-.077,1.963-.064l1.667.1,3.322.218a50.867,50.867,0,0,1,6.682.641,89.906,89.906,0,0,1,46.107,20.893,107.939,107.939,0,0,1,25.881,33.422,120.7,120.7,0,0,1,6.785,16.186,144.82,144.82,0,0,1,3.758,14.352c.436,2.193.936,4.258,1.231,6.22.244,1.975.462,3.822.667,5.553s.423,3.309.6,4.771q.077,2.213.154,4C389.465,502.286,389.555,504.839,389.555,504.839Zm-.718-.013s-.129-2.527-.385-7.272c-.064-1.18-.128-2.514-.218-3.963-.205-1.45-.436-3.027-.68-4.72s-.526-3.527-.821-5.476c-.372-1.937-.949-3.951-1.462-6.1a104.384,104.384,0,0,0-12.081-29.268,106.025,106.025,0,0,0-26.844-30.242,90.99,90.99,0,0,0-42.952-18.122,85.94,85.94,0,0,0-25.753.615c-4.374.513-8.568,2.027-12.877,3.207-2.091.782-4.155,1.693-6.259,2.513a42.207,42.207,0,0,0-6.156,2.925,65.5,65.5,0,0,0-6,3.373c-1.911,1.3-3.848,2.578-5.772,3.886-1.9,1.346-3.616,2.95-5.45,4.412-.9.756-1.834,1.475-2.707,2.27l-2.5,2.526A101.5,101.5,0,0,0,212.488,448.2c-5.041,8.336-8.529,17.635-11.222,27.138l-1.822,7.208c-.5,2.411-.808,4.848-1.218,7.285l-.59,3.668-.282,3.8-.526,7.516.18,7.5.1,3.758.423,3.732c.308,2.488.513,4.989.9,7.464l1.514,7.362a112.579,112.579,0,0,0,10.722,27.8A95.667,95.667,0,0,0,228.34,585.8l2.565,2.552c.9.808,1.86,1.539,2.783,2.309,1.873,1.5,3.681,3.078,5.63,4.438,2,1.295,3.989,2.577,5.964,3.873a62.528,62.528,0,0,0,6.182,3.334,42.306,42.306,0,0,0,6.323,2.873c2.167.808,4.284,1.693,6.438,2.424,4.425,1.1,8.747,2.527,13.1,2.924a51.281,51.281,0,0,0,6.541.783l6.759.231a53.766,53.766,0,0,0,6.323-.3,47.012,47.012,0,0,0,6.323-.642,92.8,92.8,0,0,0,43.157-18.6,106.829,106.829,0,0,0,26.792-30.345,104.153,104.153,0,0,0,12.069-29.28c.513-2.155,1.09-4.182,1.449-6.1.282-1.95.565-3.771.808-5.477s.462-3.283.667-4.72c.077-1.462.141-2.795.2-3.975C388.708,507.352,388.837,504.826,388.837,504.826Z" fill="#3e50b4"/>
    <path id="Path_65" data-name="Path 65" d="M635.109,700.336c0-46.9-34.654-88.265-87.34-112.658C561,604.453,576.408,631.784,583.757,673.4c14.313,80.967-70.309,180.351-78.453,248.62-5.8,48.518,30.588,69.231,52.148,77.158,4.425-1.5,8.58-3.668,11.273-7.375,6.541-8.965,1.539-21.316-1.911-31.858-16.993-51.981,18.507-93.42,37.245-139C619.373,783.688,635.109,741.223,635.109,700.336Z" fill="#4a97b8"/>
    <circle id="Ellipse_41" data-name="Ellipse 41" cx="54.057" cy="54.057" r="54.057" transform="translate(468.385 461.814)" fill="#fff"/>
    <circle id="Ellipse_42" data-name="Ellipse 42" cx="45.067" cy="45.067" r="45.067" transform="translate(468.224 549.375) rotate(-76.714)" fill="#ccdb38"/>
    <path id="Path_66" data-name="Path 66" d="M551.065,515.843A28.639,28.639,0,1,1,522.426,487.2,28.644,28.644,0,0,1,551.065,515.843Z"/>
    <circle id="Ellipse_43" data-name="Ellipse 43" cx="21.765" cy="21.765" r="21.765" transform="translate(517.103 468.658)" fill="#fff"/>
    <path id="Path_67" data-name="Path 67" d="M389.8,508.122s1.218-1.065,3.539-2.706a94.226,94.226,0,0,1,10.017-6.169,103.648,103.648,0,0,1,15.326-6.631,83.136,83.136,0,0,1,9.158-2.45,81.139,81.139,0,0,1,9.721-1.4,66.759,66.759,0,0,1,9.863.077,54.8,54.8,0,0,1,9.439,1.578,50.41,50.41,0,0,1,8.414,2.988,55.321,55.321,0,0,1,6.977,3.861,45.925,45.925,0,0,1,5.361,4c1.449,1.372,2.757,2.488,3.732,3.527,1.885,2.116,2.963,3.322,2.963,3.322s-1.244-1.013-3.438-2.809c-1.077-.9-2.513-1.834-4.078-2.975-1.667-1-3.476-2.232-5.579-3.322a53.72,53.72,0,0,0-6.939-3.168,69.506,69.506,0,0,0-8.144-2.334,60.981,60.981,0,0,0-8.952-1.193,65.178,65.178,0,0,0-9.35.051,93.905,93.905,0,0,0-18.212,3.284,127.457,127.457,0,0,0-15.377,5.425c-4.386,1.924-8.042,3.6-10.517,4.938C391.209,507.314,389.8,508.122,389.8,508.122Z" fill="#3e50b4"/>
    <path id="Path_68" data-name="Path 68" d="M626.055,525.244s-.372,1.872-1.052,5.386c-.167.873-.359,1.86-.564,2.937-.3,1.065-.616,2.219-.975,3.476a80.241,80.241,0,0,1-2.642,8.567,97.688,97.688,0,0,1-10.645,21.829,81.486,81.486,0,0,1-22.15,22.945A61.932,61.932,0,0,1,580.165,595a87.232,87.232,0,0,1-8.811,3.591,59.065,59.065,0,0,1-9.631,2.193c-1.668.193-3.322.539-5.028.616l-5.143.077a33.591,33.591,0,0,1-5.181-.385,41.837,41.837,0,0,1-5.323-.77c-1.629-.41-3.27-.833-4.925-1.244a51.767,51.767,0,0,1-5.1-1.821c-3.527-1.18-6.567-3.116-9.786-4.822a70.194,70.194,0,0,1-8.786-6.592,72.948,72.948,0,0,1-7.772-7.888,93.524,93.524,0,0,1-6.515-9.08,106.4,106.4,0,0,1-5.438-9.85,108.661,108.661,0,0,1-4.078-10.594A96.68,96.68,0,0,1,484.052,526c-.949-7.669-.423-15.454.321-23.175l.962-5.72.474-2.822.731-2.86,1.488-5.733,1.937-5.527a45.127,45.127,0,0,1,2.244-5.4c.847-1.757,1.59-3.565,2.514-5.284a96.193,96.193,0,0,1,6.105-9.952,89.937,89.937,0,0,1,7.233-9.106,92.493,92.493,0,0,1,8.452-7.888,83.6,83.6,0,0,1,9.337-6.682,76,76,0,0,1,10.209-5.015,68.466,68.466,0,0,1,10.722-3.386c3.681-.538,7.323-1.333,11-1.257a51.872,51.872,0,0,1,5.464,0c1.808.18,3.591.347,5.374.526l.667.077.333.039.167.013.384.077,1.219.282,2.437.564a35.11,35.11,0,0,1,4.912,1.334c1.693.6,3.36,1.2,5.027,1.808,1.629.641,3.091,1.488,4.618,2.219,3.1,1.372,5.745,3.412,8.477,5.181a67.284,67.284,0,0,1,13.261,13.108,82.42,82.42,0,0,1,13.916,28.742,97.492,97.492,0,0,1,3.36,24.073,83.267,83.267,0,0,1-.141,8.952c-.051,1.295-.115,2.5-.154,3.6-.141,1.09-.256,2.09-.372,2.975C626.3,523.333,626.055,525.244,626.055,525.244Zm-.719-.141s.193-1.886.565-5.425q.135-1.327.308-2.963c.025-1.09.051-2.283.089-3.578a62.834,62.834,0,0,0-.256-8.85c-.308-6.618-2.052-14.57-5.118-23.15a80.054,80.054,0,0,0-15.493-25.843,71.884,71.884,0,0,0-12.671-11.222c-2.527-1.436-4.9-3.245-7.682-4.386-1.36-.6-2.694-1.373-4.079-1.873-1.385-.474-2.783-.949-4.181-1.423a57.712,57.712,0,0,0-18.776-2.476c-3.232-.1-6.439.629-9.683,1.065a69.772,69.772,0,0,0-9.568,2.834,67.8,67.8,0,0,0-9.273,4.271,75.245,75.245,0,0,0-8.619,5.874A83.62,83.62,0,0,0,512.961,455a100.027,100.027,0,0,0-6.939,8.247,91.448,91.448,0,0,0-6.092,9.055c-.936,1.564-1.706,3.244-2.565,4.86a39.42,39.42,0,0,0-2.334,5l-2.168,5.118-1.718,5.232-.86,2.63-.654,2.783-1.3,5.489c-2.565,14.685-2.36,30.217,2.449,44.312a70.946,70.946,0,0,0,9.594,19.7,60.97,60.97,0,0,0,14.582,15.365,68.945,68.945,0,0,0,8.606,5.592c3.078,1.359,6.079,3,9.17,3.783a42.242,42.242,0,0,0,4.643,1.347c1.667.321,3.335.629,4.989.936a38.421,38.421,0,0,0,4.6.475,28.6,28.6,0,0,0,4.682.179,64.542,64.542,0,0,0,17.814-2.667,74.342,74.342,0,0,0,15.519-6.926A81.433,81.433,0,0,0,607.663,565.6c5.566-7.221,9.683-14.249,12.005-20.456a60.817,60.817,0,0,0,2.962-8.324c.359-1.231.706-2.373,1.013-3.424.231-1.078.424-2.052.616-2.925C624.952,526.962,625.336,525.1,625.336,525.1Z" fill="#3e50b4"/>
  </g>
</svg>
