<?xml version="1.0" encoding="utf-8"?>
<!-- Generator: Adobe Illustrator 24.3.0, SVG Export Plug-In . SVG Version: 6.00 Build 0)  -->
<svg version="1.1" id="Layer_1" xmlns="http://www.w3.org/2000/svg" xmlns:xlink="http://www.w3.org/1999/xlink" x="0px" y="0px"
	 viewBox="0 0 500 500" style="enable-background:new 0 0 500 500;" xml:space="preserve">
<style type="text/css">
	.st0{fill:#28324E;}
	.st1{fill:#3A9B56;}
	.st2{fill:#41A85F;}
	.st3{fill:#61BD6D;}
	.st4{fill:#FFFFFF;}
	.st5{fill:#FDC006;}
	.st6{fill:#FAC51C;}
	.st7{fill:#F7DA64;}
	.st8{fill:#475577;}
	.st9{fill:#9365B8;}
	.st10{fill:#89C76B;}
</style>
<g>
	<g>
		<g>
			<path class="st0" d="M129.5,261.09c-0.04,0.12-0.06,0.2-0.06,0.2S129.47,261.22,129.5,261.09z"/>
			<path class="st0" d="M130.15,237.17c0.84-4.62,1.73-11.65,1.11-18.56c-0.26-5.1-3.35-50.56-29.58-56.56
				c0,0-5.31,3.18-12.67,19.47c-7.35,16.29-7.18,24.74-7.18,24.74s19.02-6.56,32.49-2.02c-1.48,1.35-3.19,3.06-5.14,5.24
				c-8.08,9.08-9.68,14.6-9.68,14.6s17.01-0.5,23.94,7.49c0.1,0.12,0.19,0.23,0.29,0.35c-1.42,0.8-3.78,2.47-7.11,5.92
				c-5.86,6.07-7.13,9.86-7.13,9.86s11.82,0.14,16.4,5.88c3.77,4.73,3.73,6.88,3.6,7.5C130.02,259.37,133.81,246.1,130.15,237.17z"
				/>
		</g>
	</g>
	<path class="st1" d="M286.38,370.31c-15.41,8.19-28.1,23.33-31.96,40.35c-3.02,13.33,1.99,25.95,6.83,38.02
		c4.65,11.59,4.96,34.82,18.48,40.24c3.33,1.33,7.23,1.51,10.43-0.11c2.53-1.28,4.41-3.54,6.09-5.83
		c13.55-18.47,19.41-44.55,24.09-66.6c3.14-14.78,6.77-30.62-3.98-43.43c-3.89-4.64-9.84-7.69-15.89-7.39
		c-3.06,0.15-6.02,1.12-8.86,2.29C289.84,368.58,288.09,369.4,286.38,370.31z"/>
	<path class="st1" d="M425.12,340.1c0.65-3.15-5.7-7.12-14.18-8.87c-2.41-0.5-4.73-0.75-6.84-0.8c-1.41-2.84-3.43-5.33-5.89-7.34
		c0.65-1.03,1.17-2.07,1.55-3.11c4.99-0.47,8.81-2.94,8.77-5.87c-0.04-3.22-4.7-5.77-10.41-5.7c-1.47,0.02-2.86,0.21-4.12,0.54
		c-3.89-0.57-8.89,0.84-13.35,4.13c-1.84,1.36-3.4,2.91-4.65,4.53c-8.73-6.62-29.38-24.55-31.39-47.09
		c-2.64-29.73,9.72-52.31,10.62-53.89c1.65-2.42,2.84-5.35,3.3-8.62c1.33-9.47-3.83-18.02-11.52-19.1c-7.14-1-13.96,4.8-15.95,13.22
		l-0.09-0.06c-0.74,1.24-18.1,30.79-14.53,70.95c3.29,36.98,35.98,62.64,45.62,69.44c0.74,7.68,5.44,14.42,12.29,17.79
		c0.49,1.63,1.4,3.36,2.73,4.94c3.41,4.08,8.18,5.71,10.65,3.64c1.62-1.35,1.82-3.96,0.83-6.74c0.35-0.07,0.7-0.14,1.05-0.22
		c0.53,0.74,1.11,1.48,1.72,2.22c5.4,6.46,11.79,10.03,14.26,7.96c2.47-2.07,0.09-8.98-5.31-15.44c-0.15-0.18-0.3-0.34-0.45-0.52
		c0.4-0.39,0.78-0.79,1.15-1.21c0.52,0.34,1.04,0.67,1.59,0.99c7.25,4.28,14.46,5.51,16.1,2.73c1.64-2.77-2.92-8.49-10.17-12.77
		c-0.83-0.49-1.66-0.94-2.48-1.35c0.07-0.36,0.16-0.72,0.21-1.09c0.06-0.44,0.08-0.87,0.12-1.3c0.74,0.19,1.49,0.38,2.27,0.54
		C417.07,344.4,424.47,343.26,425.12,340.1z"/>
	<path class="st2" d="M263.64,180.3l77.32-12.41c-1.6-3.82-3.42-7.57-5.49-11.23c-1.41-2.5,20.46-26.62,20.73-31.89
		c0.15-2.96,0.1-6.13-0.16-9.34c-0.51-6.22-1.82-12.59-4.07-17.88c-7.89-18.55-24.89-29.86-45.14-29.45
		c-14.69,0.3-27.76,6.95-36.65,17.28c-1.32-37.68-32.65-67.44-70.47-66.67c-38.17,0.78-68.48,32.35-67.7,70.52
		c0.03,1.47,0.12,2.93,0.24,4.37l-5.13,0.11c-23.85,0.51-43.91,35.11-52.29,53.27c18.87,5.01,34.5,19.37,43.42,36.74
		c13.24,25.77,8.63,52.73,10.9,80.33c2.1,25.53,6.87,50.92,14.92,75.26c12.05,36.4,32.79,76.57,68.11,95.26
		c10.58,5.6,22.35,8.81,34.37,8.56c24.33-0.5,45.28-14.89,60.57-32.88c15.02-17.68,25.73-38.63,33.27-60.48
		c8.26-23.91,16.07-46.49,18.68-71.95c2.44-23.84,4.62-48.01,2.05-71.93c-0.83-7.77-1.1-24.34-7.52-29.31
		c-5.93-4.59-17.29-1.01-23.98-0.62c-9.75,0.58-19.49,1.2-29.23,1.85C288.14,178.6,275.89,179.43,263.64,180.3z"/>
	<path class="st3" d="M293.51,175.5c-3.33-33.23-10-64.86-19.46-94.13c-1.36,1.26-2.65,2.59-3.86,4
		c-1.32-37.68-32.65-67.44-70.47-66.67c-38.17,0.78-68.48,32.35-67.7,70.52c0.03,1.47,0.12,2.93,0.24,4.37l-5.13,0.11
		c-23.85,0.51-43.91,35.11-52.29,53.27c18.87,5.01,34.5,19.37,43.42,36.74c13.24,25.77,8.63,52.73,10.9,80.33
		c2.1,25.53,6.87,50.92,14.92,75.26c12.05,36.4,32.79,76.57,68.11,95.26c8.25,4.37,17.23,7.25,26.48,8.21
		c37.07-59.61,58.99-140.17,57.19-228.44c-0.25-12.21-0.96-24.25-2.08-36.09c-16.66,1.11-30.13,2.06-30.13,2.06L293.51,175.5z"/>
	
		<ellipse transform="matrix(0.7071 -0.7071 0.7071 0.7071 -5.732 170.2298)" class="st0" cx="202.62" cy="92.03" rx="60.45" ry="60.45"/>
	<path class="st4" d="M256.46,81.74c8.4,27.96-7.46,57.43-35.42,65.83c-27.96,8.4-57.43-7.46-65.83-35.42s7.46-57.43,35.42-65.83
		C218.59,37.92,248.06,53.78,256.46,81.74z"/>
	
		<ellipse transform="matrix(0.4738 -0.8806 0.8806 0.4738 19.0392 236.9857)" class="st5" cx="207.83" cy="102.56" rx="44.07" ry="44.07"/>
	<path d="M246.11,81.02c3.35,11.15-2.98,22.9-14.12,26.25c-11.15,3.35-22.9-2.98-26.25-14.12c-3.35-11.15,2.97-22.9,14.12-26.25
		C231.01,63.55,242.76,69.87,246.11,81.02z"/>
	<path class="st4" d="M218.71,76.01c-3.22,5.49-10.65,7.12-16.58,3.64c-5.94-3.48-8.13-10.76-4.91-16.25s10.65-7.12,16.58-3.64
		S221.93,70.52,218.71,76.01z"/>
	
		<ellipse transform="matrix(0.3899 -0.9208 0.9208 0.3899 85.4756 353.9573)" class="st0" cx="309.88" cy="112.47" rx="37.13" ry="37.13"/>
	<path class="st4" d="M340.74,107.58c5.1,17-4.54,34.91-21.53,40.02s-34.91-4.54-40.02-21.53s4.54-34.91,21.53-40.02
		C317.72,80.94,335.64,90.58,340.74,107.58z"/>
	<path class="st5" d="M335.62,109.12c4.26,14.17-3.78,29.11-17.95,33.37c-14.17,4.26-29.11-3.78-33.37-17.95
		c-4.26-14.17,3.78-29.11,17.95-33.37C316.43,86.91,331.37,94.94,335.62,109.12z"/>
	<g>
		<g>
			<g>
				<path class="st6" d="M153.26,173.58c0.07,3.35-2.59,6.12-5.95,6.19c-3.35,0.07-6.12-2.59-6.19-5.95s2.59-6.12,5.95-6.19
					C150.42,167.56,153.19,170.23,153.26,173.58z"/>
			</g>
			<g>
				<circle class="st6" cx="167.37" cy="180.58" r="9.11"/>
			</g>
			<g>
				<path class="st6" d="M168.49,161.12c0.05,2.51-1.94,4.59-4.46,4.64c-2.51,0.05-4.59-1.94-4.64-4.46
					c-0.05-2.51,1.94-4.59,4.46-4.64C166.35,156.61,168.43,158.61,168.49,161.12z"/>
			</g>
		</g>
	</g>
	<path class="st7" d="M340.96,167.88c0.27,0.05-105.69,18.98-118.77,24.8c-6,2.67-23.41,15.96-25.87,2.76
		c-4.74-25.4,33.56-33.86,50.78-34.85c12.15-0.7,24.93-1.09,37.05-0.33c8.84,0.55,17.62,1.78,26.39,3
		C313.69,163.71,324.23,164.9,340.96,167.88z"/>
	<path class="st0" d="M340.96,167.88c-0.06,0.24-104.01,20.54-116.76,26.14c-5.85,2.57-22.82,15.34-25.22,2.66
		c-4.62-24.39,32.72-32.52,49.51-33.49c11.84-0.68,24.3-1.05,36.12-0.33c8.62,0.53,17.18,1.7,25.73,2.88
		C313.39,166.17,341.24,166.82,340.96,167.88z"/>
	<path class="st8" d="M191.11,207.37c-1.67-2.05-3-4.37-3.92-6.75c-0.77-1.99-1.35-4.13-1.55-6.26c-0.13-1.42-0.54-5.27,0.29-6.41
		c-1.48,2.03-2.22,4.52-2.41,7.02c-0.43,5.69,1.4,11.59,5.56,15.6c4.53,4.35,11.42,6.08,17.47,4.36
		C200.38,215.33,194.89,212.03,191.11,207.37z"/>
	<path class="st9" d="M261.35,175.11c-0.01-0.03-0.02-0.07-0.03-0.1c-2.79-10.48-38.21,1.38-44.72,3.68
		c-6.26,2.21-11.17,5.84-12.56,12.65c-0.42,2.06,0.12,4.47,1.86,5.66c1.62,1.11,3.85,0.89,5.63,0.07c1.78-0.82,3.26-2.17,4.86-3.31
		c12.53-8.97,30.04-7.17,42.99-14.84C260.7,178.13,261.68,176.58,261.35,175.11z"/>
	<path class="st0" d="M241.05,8.5c2.89,5.67,5.56,11.43,8.34,17.15c2.7,5.75,5.37,11.51,7.99,17.3
		c5.26,11.56,10.33,23.2,15.33,34.88l-2.38-1.02c4.07-1.47,8.12-2.98,12.2-4.42c4.09-1.42,8.16-2.88,12.27-4.23
		c4.1-1.39,8.22-2.71,12.35-4.01c4.16-1.22,8.28-2.56,12.48-3.67c-3.91,1.9-7.9,3.58-11.85,5.37c-3.98,1.71-7.96,3.41-11.97,5.03
		c-3.99,1.67-8.03,3.22-12.05,4.82c-4.03,1.58-8.08,3.08-12.12,4.63l-1.67,0.64l-0.71-1.66c-4.98-11.68-9.88-23.39-14.6-35.19
		c-2.38-5.89-4.69-11.81-6.98-17.73C245.47,20.42,243.15,14.51,241.05,8.5z"/>
	<path class="st1" d="M153.34,410.2c2.21-2.34-1.09-9.06-7.37-15.01c-1.79-1.7-3.62-3.14-5.39-4.29c0.3-3.15-0.1-6.34-1.13-9.34
		c1.1-0.53,2.09-1.14,2.96-1.82c4.49,2.23,9.03,2.15,10.55-0.36c1.66-2.76-0.95-7.38-5.84-10.34c-1.26-0.76-2.54-1.33-3.79-1.72
		c-3-2.53-7.99-3.97-13.52-3.53c-2.29,0.18-4.42,0.68-6.34,1.4c-3.92-10.23-12.02-36.35-1.83-56.56
		c13.43-26.65,35.85-39.32,37.44-40.19c2.68-1.18,5.23-3.05,7.35-5.59c6.12-7.34,6.25-17.33,0.29-22.3
		c-5.54-4.62-14.39-3.28-20.53,2.82l-0.05-0.1c-1.28,0.66-31.62,16.62-49.76,52.62c-16.71,33.16-2.46,72.2,2.14,83.06
		c-3.42,6.92-2.98,15.12,1.06,21.6c-0.45,1.65-0.58,3.59-0.29,5.64c0.75,5.26,3.94,9.16,7.12,8.71c2.09-0.3,3.64-2.4,4.26-5.29
		c0.33,0.12,0.67,0.25,1.01,0.36c0.06,0.91,0.16,1.84,0.29,2.79c1.18,8.34,4.73,14.74,7.91,14.28c3.19-0.45,4.81-7.58,3.63-15.92
		c-0.03-0.23-0.07-0.45-0.11-0.68c0.54-0.12,1.08-0.26,1.62-0.42c0.26,0.56,0.53,1.12,0.83,1.68c3.91,7.46,9.38,12.3,12.24,10.81
		c2.85-1.49,2-8.75-1.91-16.22c-0.45-0.86-0.92-1.67-1.4-2.45c0.25-0.27,0.51-0.53,0.75-0.82c0.28-0.34,0.53-0.69,0.78-1.04
		c0.52,0.55,1.07,1.11,1.64,1.65C144.24,409.6,151.13,412.54,153.34,410.2z"/>
	<path class="st10" d="M211.19,264.01c-14.65,28.56-17.83,64.69-16.86,97.06c0.55,18.12,10.24,33.34,19.55,48.31
		c8.05,12.93,11.87,26.5,28.4,27.27c34.84-58.96,55.31-137.01,53.57-222.33c-0.02-0.99-0.09-1.96-0.12-2.95
		c-9.45,0.79-19.66,2.9-30.44,6.31C239.06,225.97,222,242.93,211.19,264.01z"/>
	<path class="st3" d="M204.4,371.98c15.73,7.55,29.03,22.16,33.58,39.01c3.56,13.2-0.93,26.01-5.27,38.27
		c-4.17,11.77-3.53,34.99-16.82,40.96c-3.27,1.47-7.16,1.8-10.42,0.31c-2.58-1.18-4.55-3.36-6.32-5.57
		c-14.29-17.91-21.21-43.72-26.79-65.56c-3.74-14.64-8.01-30.31,2.21-43.56c3.7-4.79,9.52-8.09,15.57-8.04
		c3.06,0.03,6.06,0.88,8.94,1.93C200.87,370.39,202.65,371.14,204.4,371.98z"/>
	<path d="M331.7,103.1c2.35,7.82-2.09,16.06-9.9,18.4c-7.82,2.35-16.06-2.09-18.4-9.9c-2.35-7.82,2.09-16.06,9.9-18.4
		C321.12,90.85,329.36,95.28,331.7,103.1z"/>
	
		<ellipse transform="matrix(0.5063 -0.8624 0.8624 0.5063 68.5032 309.978)" class="st4" cx="304.96" cy="95.16" rx="8.08" ry="8.74"/>
	<path class="st3" d="M345.3,226.45c-11.01-11.98-28.33-16.86-49.56-15.08c0.03,0.99,0.1,1.96,0.12,2.95
		c1.74,85.31-18.72,163.37-53.57,222.33c0.87,0.04,1.75,0.07,2.69,0.04c15.32-0.52,35.98-8.01,47.17-18.21
		c26.18-23.87,39.88-59.06,49.19-92.43C348.95,298.77,367.52,250.62,345.3,226.45z"/>
</g>
</svg>
