<?xml version="1.0" encoding="utf-8"?>
<!-- Generator: Adobe Illustrator 24.3.0, SVG Export Plug-In . SVG Version: 6.00 Build 0)  -->
<svg version="1.1" id="Layer_1" xmlns="http://www.w3.org/2000/svg" xmlns:xlink="http://www.w3.org/1999/xlink" x="0px" y="0px"
	 viewBox="0 0 500 500" style="enable-background:new 0 0 500 500;" xml:space="preserve">
<style type="text/css">
	.st0{fill:#00A885;}
	.st1{fill:#28324E;}
	.st2{fill:#1ABC9C;}
	.st3{fill:#FFFFFF;}
	.st4{fill:#FAC51C;}
	.st5{fill:#F7DA64;}
	.st6{fill:#B8312F;}
</style>
<g>
	<g>
		<g>
			<g>
				<path class="st0" d="M220.94,336.58c0.45-40.61-35.22-60.76-68.56-39.58c-18.6,11.82-28.97,33.68-31.7,56.89
					c-2.64,22.45,9.44,45.12,19,64.43c10.46,21.13,26.76,53.47,45.32,66.73c22.35,15.97,16.28-15.23,15.53-27.99
					c-1.29-21.87,1.04-44.01,6.92-64.91c4.3-15.28,10.48-30.01,12.74-45.84C220.65,342.95,220.9,339.71,220.94,336.58z"/>
			</g>
			<g>
				<path class="st0" d="M279.06,336.58c-0.45-40.61,35.22-60.76,68.56-39.58c18.6,11.82,28.97,33.68,31.7,56.89
					c2.64,22.45-9.44,45.12-19,64.43c-10.46,21.13-26.76,53.47-45.32,66.73c-22.35,15.97-16.28-15.23-15.53-27.99
					c1.29-21.87-1.04-44.01-6.92-64.91c-4.3-15.28-10.48-30.01-12.74-45.84C279.35,342.95,279.1,339.71,279.06,336.58z"/>
			</g>
		</g>
	</g>
	<path class="st1" d="M229.59,45.34c-6.01,1.12-11.46,4.76-17.59,5.4c-5.17,0.55-11.52,0.49-16.66-0.01
		c-1.83-0.18-4.02-0.8-4.46-2.59c-0.2-0.8,0.03-1.64,0.09-2.46c0.53-6.96-7.47-6.73-12.11-7.46c-1.47-0.23-3.38-1.13-2.96-2.55
		c0.15-0.52,0.6-0.88,1.03-1.2c4.43-3.31,9.42-5.21,14.85-5.98c3.25-0.46,11.48-2.35,14.38-1.15c-3.04-1.26-5.86-3.01-8.34-5.16
		c-1-0.87-2.02-2-1.89-3.32c0.1-1.03,0.89-1.86,1.68-2.53c7.98-6.79,19.78-6.87,29.91-4.2c10.13,2.68,19.54,7.69,29.74,10.09
		c-0.13-0.03,5.45-5.98,6.16-6.48c2.7-1.91,5.94-3.36,9.2-3.98c3.41-0.65,11.11-0.43,12.88,3.35c1.47,3.14-7.51,11.01-2.77,12.68
		c0.74,0.26,1.55,0.06,2.3-0.14c5.26-1.41,10.86-3.71,16.38-3.71c3.4-0.44,6.82-0.89,10.24-0.71c3.67,0.19,25.71,3.67,23.26,10.65
		c-0.52,1.47-2.14,2.17-3.6,2.71c-2.91,1.08-9.15,2.05-11.06,4.63c-1.69,2.29,0.6,6.99-1.62,8.77c-0.46,0.36-1.09,0.38-1.68,0.37
		c-17.07-0.08-34.21-0.16-51.11-2.6C253.81,46.04,241.57,43.11,229.59,45.34z"/>
	<path class="st1" d="M163.34,123.8c1.74-2.57,3.56-5.08,5.46-7.54c11.81-15.29,24.37-27.87,32.7-45.75
		c2.85-6.11,9.74-31.95,19.78-30.11c-17.83-3.27-36.51,1.11-53.3,7.07c-8.87,3.15-17.5,6.95-25.91,11.18
		c-4.43,2.23-11.45,4.95-14.28,9.2c-5.7,8.54,12.44,6.57,17.12,6.92c-2.87-0.21-10.93,8.69-13.1,10.65
		c-3.49,3.15-7.92,6.58-10.78,10.26c-8.18,10.51,9.76,7.57,15.22,6.89c0.55-0.07-6.44,12.05-6.77,12.59
		c-3.37,5.54-6.11,11.45-8.16,17.6c-0.68,2.04-0.8,5.05,1.29,5.57c0.92,0.23,1.86-0.21,2.71-0.63c4.2-2.11,8.4-4.21,12.6-6.32
		c-3.1,12.67,0.71,25.9,4.5,38.38C146.72,153.41,153.85,137.8,163.34,123.8z"/>
	<path class="st1" d="M331.27,123.8c-1.74-2.57-3.56-5.08-5.46-7.54c-11.81-15.29-24.37-27.87-32.7-45.75
		c-2.85-6.11-9.74-31.95-19.78-30.11c17.83-3.27,36.51,1.11,53.3,7.07c8.87,3.15,17.5,6.95,25.91,11.18
		c4.43,2.23,11.45,4.95,14.28,9.2c5.7,8.54-12.44,6.57-17.12,6.92c2.87-0.21,10.93,8.69,13.1,10.65c3.49,3.15,7.92,6.58,10.78,10.26
		c8.18,10.51-9.76,7.57-15.22,6.89c-0.55-0.07,6.44,12.05,6.77,12.59c3.37,5.54,6.11,11.45,8.16,17.6c0.68,2.04,0.8,5.05-1.29,5.57
		c-0.92,0.23-1.86-0.21-2.71-0.63c-4.2-2.11-8.4-4.21-12.6-6.32c3.1,12.67-0.71,25.9-4.5,38.38
		C347.89,153.41,340.76,137.8,331.27,123.8z"/>
	<path class="st2" d="M326.75,159.08c-2.54,5.41-5.1,10.82-7.23,16.41c-4.93,12.92-7.44,27.72-1.9,40.4
		c2.36,5.39,6.08,10.15,8.02,15.71c6.65,18.99-7.89,44.04-22.33,55.6c-16.04,12.83-35.76,20.72-56.43,20.72
		c-23.48,0-42.37-10.99-61.73-22.78c-17.39-10.59-15.08-32.15-10.68-50.16c4.19-17.15,9.85-35.79,2.4-51.79
		c-2.55-5.47-6.47-10.17-9.8-15.21c-38.12-57.76,15.24-132.75,79.81-132.75c49.06,0,104.88,50.22,88.87,102.11
		C333.43,144.84,330.1,151.96,326.75,159.08z"/>
	<ellipse class="st2" cx="250" cy="305.77" rx="164.57" ry="105.65"/>
	<g>
		<g>
			<g>
				<circle class="st0" cx="121.42" cy="270.91" r="5.11"/>
			</g>
			<g>
				<path class="st0" d="M145.96,277.05c0,4.23-3.43,7.67-7.67,7.67c-4.24,0-7.67-3.43-7.67-7.67s3.43-7.67,7.67-7.67
					C142.53,269.38,145.96,272.81,145.96,277.05z"/>
			</g>
			<g>
				<path class="st0" d="M139.57,260.69c0,2.12-1.72,3.83-3.83,3.83c-2.12,0-3.83-1.72-3.83-3.83c0-2.12,1.72-3.83,3.83-3.83
					C137.85,256.85,139.57,258.57,139.57,260.69z"/>
			</g>
		</g>
	</g>
	
		<ellipse transform="matrix(0.1602 -0.9871 0.9871 0.1602 90.3944 343.5987)" class="st0" cx="247.12" cy="118.68" rx="74.7" ry="74.7"/>
	
		<ellipse transform="matrix(0.2298 -0.9732 0.9732 0.2298 74.8443 331.9226)" class="st3" cx="247.12" cy="118.68" rx="63.64" ry="63.64"/>
	<circle class="st4" cx="247.12" cy="118.68" r="53.06"/>
	<circle cx="247.12" cy="118.68" r="33.71"/>
	<path class="st3" d="M292.09,88.75c0,14.15-11.47,25.62-25.62,25.62c-14.15,0-25.62-11.47-25.62-25.62
		c0-14.15,11.47-25.62,25.62-25.62C280.62,63.13,292.09,74.6,292.09,88.75z"/>
	
		<ellipse transform="matrix(0.2298 -0.9732 0.9732 0.2298 -43.275 431.3095)" class="st0" cx="250.85" cy="242.99" rx="55.31" ry="55.31"/>
	
		<ellipse transform="matrix(0.9239 -0.3827 0.3827 0.9239 -73.8951 114.4949)" class="st3" cx="250.85" cy="242.99" rx="47.33" ry="47.33"/>
	
		<ellipse transform="matrix(0.1602 -0.9871 0.9871 0.1602 -29.1854 451.6865)" class="st4" cx="250.85" cy="242.99" rx="39.46" ry="39.46"/>
	<path d="M275.93,243c0,13.85-11.22,25.07-25.07,25.07c-13.85,0-25.07-11.22-25.07-25.07c0-13.85,11.22-25.07,25.07-25.07
		C264.7,217.92,275.93,229.15,275.93,243z"/>
	<circle class="st3" cx="265.24" cy="220.74" r="19.05"/>
	<path class="st0" d="M163.04,351.09c0.11-0.4,0.29-0.82,0.53-1.25c5.03-8.89,23.16-6.76,31.43-6.48
		c15.52,0.53,28.65,0.6,44.17-2.67c23-4.84,45.21-12.77,66.88-21.76c9.94-4.12,38.95-25.04,42.56-3.61
		c6.93,41.23-56.22,53.64-84.52,54.68c-21.05,0.77-42.02-2.1-62.85-4.98c-7.92-1.09-15.87-2.19-23.56-4.25
		C173.62,359.69,161.34,357.1,163.04,351.09z"/>
	<path class="st5" d="M154.7,337.32c0.12-0.4,0.31-0.82,0.57-1.25c5.4-8.89,24.87-6.76,33.75-6.48c16.66,0.53,30.77,0.6,47.43-2.67
		c24.69-4.84,48.55-12.77,71.81-21.76c10.67-4.12,41.83-25.04,45.7-3.61c7.45,41.23-60.37,53.64-90.75,54.68
		c-22.6,0.77-45.12-2.1-67.49-4.98c-8.51-1.09-17.04-2.19-25.3-4.25C166.06,345.92,152.88,343.33,154.7,337.32z"/>
	<path class="st1" d="M163.04,344.74c0.11-0.4,0.29-0.82,0.53-1.25c5.03-8.89,23.16-6.76,31.43-6.48
		c15.52,0.53,28.65,0.6,44.17-2.67c23-4.84,45.21-12.77,66.88-21.76c9.94-4.12,38.95-25.04,42.56-3.61
		c6.93,41.23-56.22,53.64-84.52,54.68c-21.05,0.77-42.02-2.1-62.85-4.98c-7.92-1.09-15.87-2.19-23.56-4.25
		C173.62,353.34,161.34,350.76,163.04,344.74z"/>
	<path class="st2" d="M366.05,282.37c3.05,2.85,5.58,6.14,7.41,9.58c1.54,2.88,2.78,6.01,3.37,9.19c0.4,2.12,1.55,7.85,0.3,9.68
		c2.23-3.26,3.17-7.12,3.18-10.9c0.03-8.61-3.77-17.23-11.24-22.64c-8.13-5.89-19.91-7.49-29.84-4.04
		C349.51,271.74,359.12,275.91,366.05,282.37z"/>
	<path class="st1" d="M365.57,288.05c2.74,3.51,4.91,7.46,6.38,11.5c1.23,3.38,2.14,7,2.4,10.6c0.17,2.4,0.73,8.89-0.71,10.78
		c2.55-3.36,3.89-7.54,4.3-11.74c0.92-9.56-1.96-19.57-8.83-26.45c-7.47-7.49-19.03-10.63-29.26-7.95
		C350.23,274.32,359.36,280.07,365.57,288.05z"/>
	<path class="st6" d="M223.73,353.09c1.22,9.14,23.17,7.55,29.07,7.42c11.61-0.26,28.58-0.01,38.27-7.28
		c1.02-0.77,2.02-1.66,2.46-2.86c0.31-0.85,0.32-1.78,0.14-2.66c-0.46-2.28-2.09-4.2-4.07-5.42c-1.98-1.22-4.28-1.81-6.58-2.16
		c-8.39-1.29-15.15,1.42-23.11,3.26c-8.15,1.88-16.43,3.25-24.75,4.14C229.93,348.07,223.26,349.51,223.73,353.09z"/>
</g>
</svg>
