<?xml version="1.0" encoding="utf-8"?>
<!-- Generator: Adobe Illustrator 24.3.0, SVG Export Plug-In . SVG Version: 6.00 Build 0)  -->
<svg version="1.1" id="Layer_1" xmlns="http://www.w3.org/2000/svg" xmlns:xlink="http://www.w3.org/1999/xlink" x="0px" y="0px"
	 viewBox="0 0 500 500" style="enable-background:new 0 0 500 500;" xml:space="preserve">
<style type="text/css">
	.st0{fill:#54ACD2;}
	.st1{fill:#4A97B8;}
	.st2{fill:#98BBD4;}
	.st3{fill:#B8CEE0;}
	.st4{fill:#FFFFFF;}
	.st5{fill:#CCDB38;}
	.st6{fill:#28324E;}
	.st7{fill:#4D9DC0;}
	.st8{fill:#3E50B4;}
</style>
<g>
	
		<ellipse transform="matrix(0.7071 -0.7071 0.7071 0.7071 -9.2782 165.4355)" class="st0" cx="195.06" cy="93.92" rx="70.03" ry="70.03"/>
	<circle class="st0" cx="271.18" cy="163.95" r="53.79"/>
	<path class="st0" d="M422.4,251.56c0,31.88-12.27,64.99-24.22,94.04c-14.61,35.54-42.3,67.85-29.04,108.38
		c2.69,8.22,6.59,17.85,1.49,24.84c-2.91,4-7.98,5.71-12.78,6.9c-57.62,14.31-123.53-13.71-163.07-55.74
		c-19.54-20.78-40.02-46.44-51.59-72.41c-14.39-32.3-29.34-70.03-29.34-106c0-58.48,69.07-105.88,154.27-105.88
		S422.4,193.08,422.4,251.56z"/>
	
		<ellipse transform="matrix(0.1602 -0.9871 0.9871 0.1602 175.5616 422.6013)" class="st0" cx="336.14" cy="108.13" rx="53.79" ry="53.79"/>
	<path class="st1" d="M336.14,54.34c-0.05,0-0.1,0-0.14,0v107.58c0.05,0,0.1,0,0.14,0c29.71,0,53.79-24.08,53.79-53.79
		C389.93,78.42,365.84,54.34,336.14,54.34z"/>
	<path class="st1" d="M195.06,23.89c-0.69,0-1.38,0.03-2.06,0.05V163.9c0.69,0.02,1.37,0.05,2.06,0.05
		c38.68,0,70.03-31.35,70.03-70.03C265.09,55.24,233.74,23.89,195.06,23.89z"/>
	<path class="st2" d="M362.93,239.08c0,32.96-41.12,59.67-91.84,59.67c-50.72,0-91.84-26.72-91.84-59.67
		c0-14.12,11.6-30.93,24.27-37.27c11.2-5.6,23.47-1.34,34.89,0.93c17.36,3.44,31.18,4.17,48.06,0.02
		c16.05-3.95,38.59-12.56,54.18-4.47C354.59,205.52,362.93,224.06,362.93,239.08z"/>
	<g>
		<g>
			<g>
				<path class="st3" d="M139.93,227.5c0,2.51-2.04,4.55-4.55,4.55c-2.51,0-4.55-2.04-4.55-4.55c0-2.51,2.04-4.55,4.55-4.55
					C137.89,222.95,139.93,224.99,139.93,227.5z"/>
			</g>
			<g>
				<path class="st3" d="M157.23,232.96c0,3.77-3.06,6.83-6.83,6.83s-6.83-3.06-6.83-6.83c0-3.77,3.06-6.83,6.83-6.83
					S157.23,229.19,157.23,232.96z"/>
			</g>
			<g>
				<circle class="st3" cx="148.13" cy="218.39" r="3.41"/>
			</g>
		</g>
	</g>
	
		<ellipse transform="matrix(0.7071 -0.7071 0.7071 0.7071 -12.2363 165.1219)" class="st4" cx="193.2" cy="97.33" rx="56.68" ry="56.68"/>
	
		<ellipse transform="matrix(0.7071 -0.7071 0.7071 0.7071 -12.2363 165.1219)" class="st5" cx="193.2" cy="97.33" rx="47.26" ry="47.26"/>
	<path d="M223.23,97.33c0,16.58-13.44,30.02-30.02,30.02s-30.02-13.44-30.02-30.02c0-16.58,13.44-30.02,30.02-30.02
		S223.23,80.75,223.23,97.33z"/>
	<circle class="st4" cx="210.43" cy="70.68" r="22.82"/>
	<path class="st2" d="M361.74,223.37c0.57,32.95-40.08,60.37-90.8,61.25c-50.72,0.87-92.29-25.13-92.86-58.08
		c-0.24-14.12,11.07-31.13,23.63-37.68c11.1-5.8,23.44-1.74,34.9,0.33c17.42,3.14,31.25,3.63,48.06-0.81
		c15.98-4.22,38.37-13.22,54.1-5.4C352.83,189.95,361.48,208.35,361.74,223.37z"/>
	<path class="st6" d="M362.93,233.43c0,32.96-41.12,59.67-91.84,59.67c-50.72,0-91.84-26.72-91.84-59.67
		c0-14.12,11.6-30.93,24.27-37.27c11.2-5.61,23.47-1.34,34.89,0.93c17.36,3.44,31.18,4.17,48.06,0.02
		c16.05-3.95,38.59-12.56,54.18-4.47C354.59,199.87,362.93,218.41,362.93,233.43z"/>
	<path class="st7" d="M271.08,305.55c-28.92,0-54.99-7.17-73.43-18.64c16.76,14.47,43.41,23.83,73.43,23.83
		c30.02,0,56.67-9.36,73.43-23.83C326.07,298.39,300.01,305.55,271.08,305.55z"/>
	<path class="st7" d="M266.63,425.02c-24.91-2.3-46.78-11.51-61.73-24.4c13.26,15.75,35.45,27.19,61.31,29.57
		c25.86,2.38,49.57-4.83,65.18-17.91C314.58,422.25,291.54,427.32,266.63,425.02z"/>
	<path class="st7" d="M294.57,451.26c-24.78,4.42-47.97,1.33-65.15-7.19c16.09,11.73,40.05,16.9,65.77,12.31
		c25.72-4.59,47.43-17.91,60.06-34.76C340.82,435.77,319.35,446.84,294.57,451.26z"/>
	<path class="st7" d="M307.45,469.34c-21.5,5.71-42.11,3.89-57.79-3.62c14.94,10.76,36.36,14.59,58.68,8.66s40.52-20.28,50.49-37.66
		C347.09,451.52,328.95,463.63,307.45,469.34z"/>
	<path class="st7" d="M367.82,449.35c-8.81,13.29-21.81,25.24-37.95,33.47c-5,2.55-10.04,4.62-15.06,6.22
		c4.34,0.34,8.68,0.47,13.01,0.42c1.33-0.6,2.66-1.23,3.99-1.9c16.38-8.35,29.06-21.39,36.63-35.99
		C368.21,450.83,368,450.09,367.82,449.35z"/>
	<path class="st2" d="M280.29,289.87c-22.91,1.66-48.91-2.24-55.51-11.55c-5.49-7.75,6.52-13.82,18.83-13.79
		c9.67,0.03,17.83,2.77,27.33,2.52c6.36-0.17,12.52-1.32,18.44-2.67c5.73-1.31,11.92-2.85,17.85-1.87
		c6.21,1.02,10.34,4.73,10.94,8.46C319.94,282.07,301.43,288.33,280.29,289.87z"/>
	<path class="st8" d="M230.94,99.13c0,0-0.08,1.99-0.22,5.7c-0.04,0.93-0.08,1.96-0.13,3.11c-0.15,1.14-0.31,2.38-0.48,3.72
		c-0.16,1.35-0.34,2.79-0.53,4.33c-0.23,1.53-0.63,3.14-0.97,4.85c-0.59,3.45-1.79,7.12-2.94,11.18c-1.45,3.95-2.97,8.29-5.29,12.61
		c-4.43,8.7-10.86,18.04-20.22,25.98c-9.21,8.06-21.79,14-35.79,15.91c-1.73,0.37-3.53,0.27-5.31,0.4
		c-1.83,0.02-3.49,0.29-5.48,0.09c-3.48-0.27-6.98-0.45-10.71-1.34c-3.74-0.55-7.2-1.89-10.79-2.98c-1.74-0.69-3.44-1.5-5.17-2.25
		c-1.76-0.7-3.4-1.64-5.03-2.61c-1.61-1-3.36-1.79-4.87-2.97c-1.54-1.12-3.09-2.24-4.65-3.37c-1.52-1.17-2.89-2.53-4.36-3.77
		c-0.72-0.64-1.47-1.25-2.17-1.92l-1.99-2.11c-1.29-1.44-2.74-2.75-3.92-4.3l-3.64-4.58c-1.2-1.54-2.18-3.25-3.28-4.87l-1.62-2.46
		l-1.42-2.59c-4.02-6.8-6.78-14.33-8.88-22.01l-1.45-5.82c-0.39-1.96-0.64-3.95-0.97-5.93l-0.46-2.98l-0.21-3l-0.39-6.03l0.12-6.01
		l0.08-2.97l0.33-3.03c0.24-2.02,0.41-4.06,0.72-6.07l1.21-5.94c1.95-7.81,4.57-15.52,8.5-22.53c3.8-7.05,8.47-13.64,14.08-19.22
		l2.05-2.14c0.72-0.68,1.48-1.3,2.22-1.95c1.51-1.26,2.94-2.62,4.51-3.78c1.6-1.12,3.2-2.24,4.8-3.36c1.56-1.17,3.36-1.96,5.01-2.94
		c1.68-0.96,3.37-1.89,5.17-2.57c1.77-0.74,3.52-1.53,5.3-2.18c3.67-1.03,7.24-2.3,10.96-2.76c3.66-0.8,7.36-0.92,11.01-1.11
		c0.53-0.01,0.74-0.06,1.53-0.05l1.3,0.08l2.59,0.17c1.75,0.17,3.37,0.09,5.21,0.5c14.34,2.15,26.7,8.16,35.95,16.29
		c9.34,7.99,15.76,17.35,20.18,26.06c2.32,4.32,3.84,8.66,5.29,12.62c1.15,4.07,2.35,7.74,2.93,11.19c0.34,1.71,0.73,3.32,0.96,4.85
		c0.19,1.54,0.36,2.98,0.52,4.33c0.17,1.34,0.33,2.58,0.47,3.72c0.04,1.15,0.08,2.19,0.12,3.12
		C230.87,97.14,230.94,99.13,230.94,99.13z M230.38,99.12c0,0-0.1-1.97-0.3-5.67c-0.05-0.92-0.1-1.96-0.17-3.09
		c-0.16-1.13-0.34-2.36-0.53-3.68c-0.2-1.33-0.41-2.75-0.64-4.27c-0.29-1.51-0.74-3.08-1.14-4.76c-1.52-6.72-4.59-14.62-9.42-22.82
		c-4.82-8.19-11.76-16.57-20.93-23.58c-9.02-7.08-20.85-12.37-33.49-14.13c-6.71-0.72-13.31-0.82-20.08,0.48
		c-3.41,0.4-6.68,1.58-10.04,2.5c-1.63,0.61-3.24,1.32-4.88,1.96c-1.67,0.59-3.23,1.42-4.8,2.28c-1.54,0.89-3.22,1.57-4.68,2.63
		c-1.49,1.01-3,2.01-4.5,3.03c-1.48,1.05-2.82,2.3-4.25,3.44c-0.7,0.59-1.43,1.15-2.11,1.77l-1.95,1.97
		c-5.36,5.1-9.8,11.25-13.59,17.79c-3.93,6.5-6.65,13.75-8.75,21.16l-1.42,5.62c-0.39,1.88-0.63,3.78-0.95,5.68l-0.46,2.86
		l-0.22,2.96l-0.41,5.86l0.14,5.85l0.08,2.93l0.33,2.91c0.24,1.94,0.4,3.89,0.7,5.82l1.18,5.74c1.94,7.54,4.53,14.96,8.36,21.68
		c3.74,6.74,8.28,13.04,13.78,18.22l2,1.99c0.7,0.63,1.45,1.2,2.17,1.8c1.46,1.17,2.87,2.4,4.39,3.46c1.56,1.01,3.11,2.01,4.65,3.02
		c1.51,1.06,3.23,1.73,4.82,2.6c1.61,0.85,3.22,1.67,4.93,2.24c1.69,0.63,3.34,1.32,5.02,1.89c3.45,0.86,6.82,1.97,10.21,2.28
		c1.72,0.18,3.28,0.64,5.1,0.61c1.77,0.06,3.53,0.12,5.27,0.18c1.5,0.14,3.31-0.17,4.93-0.23c1.65-0.17,3.32-0.11,4.93-0.5
		c12.98-1.99,24.59-7.36,33.65-14.5c9.15-7.06,16.08-15.45,20.89-23.66c4.83-8.21,7.9-16.11,9.41-22.83
		c0.4-1.68,0.85-3.26,1.13-4.76c0.22-1.52,0.44-2.94,0.63-4.27c0.19-1.33,0.36-2.56,0.52-3.68c0.06-1.14,0.11-2.18,0.16-3.1
		C230.28,101.09,230.38,99.12,230.38,99.12z"/>
	<path class="st1" d="M422.4,251.56c0-36.57-27.02-68.82-68.1-87.84c10.32,13.08,22.33,34.39,28.06,66.84
		c11.16,63.13-54.82,140.62-61.17,193.85c-4.52,37.83,23.85,53.98,40.66,60.16c3.45-1.17,6.69-2.86,8.79-5.75
		c5.1-6.99,1.2-16.62-1.49-24.84c-13.25-40.53,14.43-72.84,29.04-108.38C410.13,316.55,422.4,283.44,422.4,251.56z"/>
	
		<ellipse transform="matrix(0.2298 -0.9732 0.9732 0.2298 152.8517 408.5547)" class="st4" cx="334.54" cy="107.71" rx="42.15" ry="42.15"/>
	
		<ellipse transform="matrix(0.2298 -0.9732 0.9732 0.2298 152.8518 408.5547)" class="st5" cx="334.54" cy="107.71" rx="35.14" ry="35.14"/>
	<path d="M356.87,107.71c0,12.33-10,22.33-22.33,22.33c-12.33,0-22.33-10-22.33-22.33c0-12.33,10-22.33,22.33-22.33
		C346.87,85.38,356.87,95.38,356.87,107.71z"/>
	<circle class="st4" cx="347.36" cy="87.89" r="16.97"/>
	<path class="st8" d="M231.13,101.69c0,0,0.95-0.83,2.76-2.11c1.82-1.24,4.43-3.05,7.81-4.81c3.37-1.75,7.4-3.67,11.95-5.17
		c2.29-0.7,4.66-1.45,7.14-1.91c2.47-0.53,5.02-0.86,7.58-1.09c2.57-0.13,5.16-0.19,7.69,0.06c2.54,0.15,5.01,0.67,7.36,1.23
		c2.35,0.58,4.54,1.43,6.56,2.33c2,0.95,3.84,1.94,5.44,3.01c1.65,0.98,2.98,2.16,4.18,3.12c1.13,1.07,2.15,1.94,2.91,2.75
		c1.47,1.65,2.31,2.59,2.31,2.59s-0.97-0.79-2.68-2.19c-0.84-0.7-1.96-1.43-3.18-2.32c-1.3-0.78-2.71-1.74-4.35-2.59
		c-1.61-0.91-3.45-1.71-5.41-2.47c-1.99-0.71-4.12-1.32-6.35-1.82c-2.24-0.47-4.58-0.79-6.98-0.93c-2.39-0.2-4.85-0.11-7.29,0.04
		c-4.89,0.33-9.73,1.34-14.2,2.56c-4.45,1.29-8.57,2.73-11.99,4.23c-3.42,1.5-6.27,2.81-8.2,3.85
		C232.23,101.06,231.13,101.69,231.13,101.69z"/>
	<path class="st8" d="M415.34,115.04c0,0-0.29,1.46-0.82,4.2c-0.13,0.68-0.28,1.45-0.44,2.29c-0.23,0.83-0.48,1.73-0.76,2.71
		c-0.55,1.96-1.09,4.24-2.06,6.68c-1.7,4.94-4.26,10.85-8.3,17.02c-4.04,6.13-9.57,12.67-17.27,17.89c-1.86,1.39-3.99,2.45-6.13,3.6
		c-2.16,1.09-4.51,1.92-6.87,2.8c-2.44,0.64-4.89,1.47-7.51,1.71c-1.3,0.15-2.59,0.42-3.92,0.48c-1.33,0.02-2.66,0.04-4.01,0.06
		c-1.35,0.08-2.69-0.17-4.04-0.3c-1.39-0.21-2.63-0.19-4.15-0.6c-1.27-0.32-2.55-0.65-3.84-0.97c-1.28-0.3-2.66-0.95-3.98-1.42
		c-2.75-0.92-5.12-2.43-7.63-3.76c-2.34-1.61-4.75-3.15-6.85-5.14c-2.25-1.79-4.1-4.03-6.06-6.15c-1.74-2.32-3.61-4.54-5.08-7.08
		c-1.65-2.41-2.85-5.1-4.24-7.68c-1.11-2.72-2.35-5.41-3.18-8.26c-1.92-5.61-3.03-11.52-3.58-17.49
		c-0.74-5.98-0.33-12.05,0.25-18.07l0.75-4.46l0.37-2.2l0.57-2.23l1.16-4.47l1.51-4.31c0.48-1.45,1.09-2.84,1.75-4.21
		c0.66-1.37,1.24-2.78,1.96-4.12c1.51-2.63,2.94-5.33,4.76-7.76c1.63-2.57,3.71-4.78,5.64-7.1c2.16-2.1,4.19-4.34,6.59-6.15
		c2.25-1.98,4.8-3.57,7.28-5.21c2.62-1.39,5.17-2.93,7.96-3.91c2.7-1.2,5.55-1.91,8.36-2.64c2.87-0.42,5.71-1.04,8.58-0.98
		c1.43,0.01,2.85-0.16,4.26,0c1.41,0.14,2.8,0.27,4.19,0.41l0.52,0.06l0.26,0.03l0.13,0.01l0.3,0.06l0.95,0.22l1.9,0.44
		c1.27,0.32,2.48,0.5,3.83,1.04c1.32,0.47,2.62,0.94,3.92,1.41c1.27,0.5,2.41,1.16,3.6,1.73c2.42,1.07,4.48,2.66,6.61,4.04
		c4.01,3.1,7.59,6.47,10.34,10.22c5.68,7.39,8.91,15.32,10.85,22.41c1.93,7.13,2.54,13.54,2.62,18.77c0.16,2.62-0.03,4.95-0.11,6.98
		c-0.04,1.01-0.09,1.95-0.12,2.81c-0.11,0.85-0.2,1.63-0.29,2.32C415.53,113.55,415.34,115.04,415.34,115.04z M414.78,114.93
		c0,0,0.15-1.47,0.44-4.23c0.07-0.69,0.15-1.46,0.24-2.31c0.02-0.85,0.04-1.78,0.07-2.79c0.06-2.01,0.08-4.32-0.2-6.9
		c-0.24-5.16-1.6-11.36-3.99-18.05c-2.43-6.68-6.37-13.77-12.08-20.15c-2.8-3.24-6.19-6.11-9.88-8.75
		c-1.97-1.12-3.82-2.53-5.99-3.42c-1.06-0.47-2.1-1.07-3.18-1.46c-1.08-0.37-2.17-0.74-3.26-1.11c-4.83-1.36-9.58-2.18-14.64-1.93
		c-2.52-0.08-5.02,0.49-7.55,0.83c-2.48,0.68-5.04,1.16-7.46,2.21c-2.51,0.79-4.83,2.15-7.23,3.33c-2.27,1.44-4.62,2.8-6.72,4.58
		c-2.24,1.58-4.14,3.61-6.19,5.49c-1.83,2.1-3.79,4.11-5.41,6.43c-1.79,2.19-3.22,4.65-4.75,7.06c-0.73,1.22-1.33,2.53-2,3.79
		c-0.68,1.26-1.32,2.55-1.82,3.9l-1.69,3.99l-1.34,4.08l-0.67,2.05l-0.51,2.17l-1.01,4.28c-2,11.45-1.84,23.56,1.91,34.55
		c1.72,5.51,4.23,10.75,7.48,15.36c1.52,2.38,3.39,4.47,5.22,6.55c2.02,1.89,3.91,3.9,6.15,5.43c2.09,1.73,4.46,3,6.71,4.36
		c2.4,1.06,4.74,2.34,7.15,2.95c1.23,0.34,2.29,0.83,3.62,1.05c1.3,0.25,2.6,0.49,3.89,0.73c1.02,0.27,2.42,0.23,3.59,0.37
		c1.22,0.07,2.44,0.27,3.65,0.14c4.85,0.08,9.49-0.9,13.89-2.08c4.33-1.43,8.44-3.16,12.1-5.4c7.38-4.36,13.31-9.91,17.68-15.52
		c4.34-5.63,7.55-11.11,9.36-15.95c1.06-2.37,1.76-4.56,2.31-6.49c0.28-0.96,0.55-1.85,0.79-2.67c0.18-0.84,0.33-1.6,0.48-2.28
		C414.48,116.38,414.78,114.93,414.78,114.93z"/>
</g>
</svg>
